<?xml version="1.0" encoding="utf-8"?>
<!-- Generator: Adobe Illustrator 26.1.0, SVG Export Plug-In . SVG Version: 6.00 Build 0)  -->
<svg version="1.1" id="Layer_1" xmlns="http://www.w3.org/2000/svg" xmlns:xlink="http://www.w3.org/1999/xlink" x="0px" y="0px"
	 viewBox="0 0 26 26" style="enable-background:new 0 0 26 26;" xml:space="preserve">
<style type="text/css">
	.st0{fill:#041097;}
</style>
<path class="st0" d="M2.4,3.2C1.1,3.2,0,4.3,0,5.7c0,0.8,0.4,1.5,1,1.9l10.6,7.9c0.9,0.7,2.1,0.7,2.9,0L25,7.6c0.6-0.5,1-1.2,1-1.9
	c0-1.3-1.1-2.4-2.4-2.4L2.4,3.2L2.4,3.2z M0,10v9.5c0,1.8,1.5,3.2,3.2,3.2h19.5c1.8,0,3.2-1.5,3.2-3.2V10l-10.1,7.6
	c-1.7,1.3-4.1,1.3-5.9,0L0,10z"/>
</svg>
