<svg xmlns="http://www.w3.org/2000/svg" xml:space="preserve" id="Layer_1" x="0" y="0" style="enable-background:new 0 0 124 144" version="1.1" viewBox="0 0 124 144"><style>.st0{fill:#fff}</style><path d="M2.5 97.8c.1-.19.24-.36.28-.56.34-1.83 1.43-3.02 3.1-3.75 1.8-.78 3.64-.83 5.51-.37.62.15 1.24.29 1.85.49.48.15.86.03 1.26-.22.18-.11.46-.21.64-.14.13.04.21.36.22.56.09 1.46.15 2.93.23 4.39.02.48-.18.67-.65.61-.73-.08-1.11-.56-1.39-1.17a4.27 4.27 0 0 0-2.08-2.13c-1.26-.59-2.51-.52-3.74.05-.63.29-1.01.81-1.06 1.5-.04.62.24 1.14.75 1.51 1.02.74 2.16 1.24 3.31 1.73 1.17.5 2.37.97 3.45 1.62 2.03 1.23 2.97 3.81 1.79 6.07-.8 1.53-2.06 2.49-3.68 3-2.08.65-4.12.35-6.16-.25-.92-.27-1.84-.24-2.75.09-.46.17-.56.11-.59-.39-.03-.49-.06-.98-.12-1.46-.02-.15-.12-.3-.18-.44v-3.18c.14-.04.29-.07.42-.13.58-.25 1.12-.04 1.33.55.24.67.54 1.3 1.08 1.77 1.76 1.52 3.77 1.88 5.95 1.09 1.15-.42 1.5-2.26.56-3.04-.39-.33-.9-.52-1.38-.74-.91-.41-1.83-.79-2.74-1.2-1.01-.45-2.06-.85-3.01-1.41-.97-.57-1.75-1.38-1.95-2.58-.03-.21-.18-.4-.27-.59.02-.44.02-.86.02-1.28z"/><path d="M2.5 99.06c.09.2.24.39.27.59.2 1.21.98 2.01 1.95 2.58.95.56 2 .95 3.01 1.41.91.41 1.84.78 2.74 1.2.47.22.99.41 1.38.74.93.78.59 2.63-.56 3.04-2.18.79-4.19.44-5.95-1.09-.54-.46-.84-1.1-1.08-1.77-.21-.59-.75-.8-1.33-.55-.14.06-.28.09-.42.13-.01-2.09-.01-4.19-.01-6.28z" class="st0"/><path d="M104.7 45.54c.09 2.3-.1 4.58-.56 6.83-.33 1.65-.68 3.31-1.14 4.92-.4 1.39-.97 2.72-1.49 4.07-.74 1.96-1.73 3.79-2.81 5.58a41.974 41.974 0 0 1-3.79 5.28c-1.99 2.37-4.18 4.53-6.66 6.37a64.91 64.91 0 0 1-4.8 3.23c-1.33.82-2.72 1.55-4.14 2.22-1.23.58-2.5 1.05-3.79 1.5-1.32.46-2.66.93-4.02 1.21-1.81.37-3.64.65-5.48.8-1.88.16-3.78.22-5.67.16-2.47-.08-4.95-.27-7.37-.81-1.59-.35-3.18-.68-4.74-1.15-1.39-.42-2.76-.95-4.09-1.54-1.47-.65-2.92-1.35-4.31-2.15-1.27-.73-2.48-1.58-3.67-2.44-2.63-1.9-4.98-4.13-7.08-6.6-1.39-1.63-2.63-3.38-3.89-5.11-.68-.94-1.33-1.93-1.87-2.96-.78-1.49-1.5-3.01-2.13-4.56a38.4 38.4 0 0 1-1.49-4.47c-.37-1.38-.64-2.8-.83-4.22-.24-1.75-.37-3.52-.53-5.29-.17-1.94-.11-3.88.15-5.81.22-1.63.44-3.26.76-4.88.2-1.05.55-2.07.87-3.09.35-1.09.71-2.17 1.13-3.23.35-.87.77-1.72 1.2-2.56.47-.94.92-1.91 1.49-2.79 1.1-1.7 2.22-3.4 3.44-5.02 2.02-2.68 4.38-5.07 6.98-7.18 1.42-1.15 2.94-2.19 4.49-3.17 1.31-.83 2.69-1.55 4.09-2.21 1.24-.58 2.53-1.06 3.83-1.5 1.31-.45 2.64-.87 3.99-1.18 1.43-.34 2.89-.59 4.35-.78 1.79-.22 3.6-.38 5.4-.47 2.48-.12 4.95.04 7.41.36 2.34.3 4.64.8 6.87 1.53 1.59.52 3.15 1.16 4.67 1.85 1.42.64 2.81 1.38 4.17 2.15 1.08.62 2.11 1.34 3.14 2.05 2.6 1.79 4.95 3.88 7.09 6.2 1.6 1.73 3.07 3.56 4.28 5.6.87 1.47 1.74 2.95 2.5 4.47.59 1.18 1.05 2.42 1.49 3.66.45 1.24.85 2.51 1.19 3.79.32 1.21.59 2.44.79 3.68.25 1.48.46 2.98.58 4.48.07 1.05 0 2.12 0 3.18zm-3.91-.33c-.11-1.38-.18-2.63-.32-3.88-.12-1.16-.25-2.33-.48-3.48-.22-1.15-.54-2.28-.87-3.4-.34-1.16-.68-2.33-1.15-3.43-.71-1.66-1.45-3.31-2.35-4.87-.91-1.59-1.96-3.11-3.07-4.57a33.936 33.936 0 0 0-6.08-6.19c-1.07-.84-2.18-1.64-3.31-2.39-1.04-.69-2.1-1.35-3.21-1.92-1.31-.67-2.66-1.25-4.01-1.81-1.12-.45-2.26-.86-3.42-1.19-1.15-.33-2.33-.53-3.49-.8-2.3-.54-4.67-.68-7.03-.74-2.5-.06-4.98.14-7.44.55-1.1.18-2.18.43-3.26.72-.95.25-1.89.56-2.82.88-1.01.35-2.03.68-2.99 1.13-1.44.68-2.88 1.38-4.23 2.22-1.58.98-3.12 2.04-4.58 3.19a34.627 34.627 0 0 0-6.28 6.46c-.75 1-1.5 2.01-2.14 3.08-.8 1.32-1.53 2.68-2.2 4.07-.55 1.13-1.05 2.31-1.46 3.5-.46 1.31-.85 2.66-1.16 4.01-.35 1.52-.67 3.06-.84 4.6-.18 1.62-.22 3.26-.22 4.89 0 2 .24 3.98.63 5.94.03.13.12.29.23.34.06.03.24-.09.33-.19 1.24-1.41 2.45-2.86 3.72-4.24 1.15-1.26 2.39-2.42 3.91-3.23.78-.41 1.52-.87 2.03-1.62 1.46-2.17 2.9-4.35 4.4-6.49 1.04-1.48 2.17-2.89 3.25-4.34.17-.23.33-.25.56-.1 1.41.92 2.82 1.83 4.22 2.75.59.39.89.34 1.3-.22.94-1.26 1.84-2.55 2.83-3.78 2.28-2.82 4.59-5.6 6.9-8.39 1.63-1.98 3.28-3.94 4.93-5.9.26-.31.39-.31.65.02 2.31 2.88 4.65 5.73 6.92 8.64 1.14 1.46 2.15 3.01 3.2 4.54.84 1.22 1.66 2.47 2.5 3.69.33.48.41.48.89.17L79.47 31c.48-.32.99-.31 1.34.14.77 1 1.51 2.03 2.22 3.07 1.07 1.54 2.1 3.11 3.15 4.67.97 1.44 1.97 2.86 2.91 4.33.48.75.97 1.27 1.97 1.07.84-.17 1.51.28 2.03.91.64.77 1.23 1.58 1.87 2.36 1.43 1.73 2.88 3.44 4.33 5.15.11.13.26.22.4.32.11-.15.27-.29.31-.46.14-.65.27-1.31.34-1.98.15-1.84.3-3.66.45-5.37zm-45.27-7.52c-.03.1-.06.19-.1.27l-1.17 2.67c-.45 1.02-.89 2.04-1.66 2.87-1.85 2.01-3.7 4.02-5.52 6.05-1.08 1.2-2.12 2.44-3.17 3.67-.08.09-.09.23-.13.35.13-.01.28.01.38-.05 1.01-.69 2-1.4 3-2.1 1.06-.74 2.11-1.48 3.18-2.22.1-.07.25-.08.38-.11.01.13.06.26.04.39-.14 1.02-.27 2.04-.45 3.06-.22 1.27-.67 2.48-1.54 3.42-1.5 1.59-3.1 3.08-4.66 4.62-.09.09-.14.21-.21.32.12.02.28.1.37.06.68-.34 1.4-.64 2.01-1.08 1.55-1.1 3.08-2.24 4.59-3.4 1.04-.8 2.02-1.66 3.04-2.48.08-.06.19-.08.29-.12.04.11.12.23.1.33-.07.35-.18.7-.26 1.05-.02.1.03.22.05.33.1-.04.21-.06.28-.12.4-.35.79-.7 1.18-1.06 2.16-2 4.32-3.99 6.48-5.99.86-.79 1.73-1.58 2.58-2.38.09-.09.13-.22.2-.34-.14-.03-.28-.07-.42-.1-.05-.01-.11.01-.16.03-1.43.61-2.86 1.21-4.28 1.83-.49.22-.96.51-1.44.74-.1.05-.24.03-.35 0-.04-.01-.07-.18-.04-.25.22-.48.45-.95.68-1.43.49-1.03.99-2.05 1.48-3.08.42-.88.83-1.76 1.24-2.64.32-.69.65-1.38.95-2.09.05-.12 0-.36-.09-.43-.48-.4-1.03-.57-1.66-.48-.45.07-.91.1-1.37.14-.24.02-.38-.1-.38-.33.01-.33-.01-.68.08-1 .38-1.4.8-2.78 1.19-4.17.16-.56.31-1.13.42-1.7.03-.18-.03-.44-.15-.55-.08-.07-.37.01-.52.1-.91.56-1.8 1.15-2.7 1.72-.54.34-1.07.69-1.62 1.01-.09.06-.25 0-.38 0 .02-.12.02-.24.05-.35.02-.06.08-.11.12-.17 1.71-2.04 3.42-4.08 5.14-6.11.42-.49.66-1 .65-1.66-.03-1.09 0-2.18.01-3.27v-.73c-.23.2-.38.29-.49.42-.49.62-.99 1.24-1.46 1.88-1.24 1.65-2.41 3.35-3.71 4.94-2.28 2.79-4.64 5.52-7.24 8.04-.76.73-.8 1.15-.33 2.12.78 1.58 1.54 3.17 2.31 4.75.15.32.37.34.6.05.24-.31.49-.61.73-.91 1.1-1.38 2.2-2.77 3.3-4.16.14-.15.27-.34.56-.17zM37.64 55.17l.12.06c.09-.05.19-.09.27-.16 1.15-1.01 1.96-2.27 2.54-3.67.31-.74.56-1.51.78-2.29.32-1.1.59-2.2.88-3.31.1-.39.22-.77.32-1.16.02-.09-.03-.21-.04-.31-.09.02-.2.01-.26.06-1.41 1.15-2.82 2.31-4.23 3.45-.12.1-.31.12-.47.18-.01-.16-.08-.36-.02-.49.48-1.08.95-2.16 1.48-3.21.7-1.39 1.45-2.75 2.16-4.14.15-.29.31-.63.3-.94-.04-.83-.17-1.66-.28-2.49-.01-.11-.1-.3-.15-.3-.12.01-.28.07-.35.16-.36.47-.72.96-1.06 1.45l-3.24 4.71c-.93 1.35-1.87 2.7-2.8 4.05-.98 1.42-1.94 2.85-2.93 4.26-.07.1-.24.13-.37.19-.03-.14-.11-.29-.07-.41.15-.45.33-.88.51-1.32.27-.66.55-1.3.81-1.96.04-.09-.03-.23-.05-.34-.1.03-.23.03-.29.1-.54.58-1.11 1.14-1.61 1.76-.97 1.22-1.88 2.49-2.85 3.7-.79.98-1.65 1.92-2.49 2.87-.2.22-.32.41-.16.74.2.41.32.86.46 1.29.13.4.29.48.63.26.91-.59 1.81-1.19 2.71-1.78.57-.37 1.13-.76 1.7-1.12.1-.06.26-.04.39-.05.01.11.05.24.01.34-.17.44-.35.88-.54 1.31-.39.89-.8 1.77-1.19 2.66-.04.08-.03.24.03.3.05.05.21.04.29 0 .23-.1.44-.23.66-.34 1.01-.52 2.01-1.04 3.02-1.55 1.09-.55 1.92-1.39 2.65-2.36.82-1.1 1.71-2.16 2.58-3.23.06-.07.19-.08.28-.12.04.1.11.2.11.3-.03.46-.07.92-.12 1.38-.02.45-.07.96-.12 1.47zm41.8-18.91h.03V35.34c-.03-.47-.23-.62-.66-.44-.55.23-1.09.47-1.63.73-.37.18-.65.47-.79.87-.48 1.44-.92 2.89-1.45 4.3-.2.54-.07.9.25 1.29.74.92 1.47 1.85 2.2 2.78 1.18 1.5 2.36 2.99 3.55 4.49.07.09.22.13.32.19.02-.13.08-.26.05-.38-.29-1.04-.55-2.1-.92-3.11-.47-1.27-1.04-2.5-1.57-3.76-.29-.68-.54-1.16.17-1.9.51-.53.64-1.17.58-1.89-.06-.75-.09-1.5-.13-2.25zM77.05 49.2c-.12-.16-.18-.25-.25-.34-1.28-1.56-2.61-3.08-3.83-4.69-1.34-1.77-2.6-3.61-3.86-5.44-.56-.81-1.03-1.68-1.52-2.52-.3-.5-.57-1.02-.87-1.52-.05-.08-.19-.11-.29-.16-.03.11-.13.24-.1.33.25.71.51 1.41.79 2.11.27.68.58 1.35.86 2.02.38.91.75 1.83 1.13 2.73.41.97.82 1.94 1.24 2.91.31.73.58 1.49 1.32 1.92 1.35.78 2.72 1.55 4.08 2.32.29.16.59.3.9.42.09.03.22-.05.4-.09zm6.6-3.61c.4 1.03.74 2.11 1.23 3.11.54 1.09 1.18 2.14 1.85 3.16.61.93 1.32 1.78 2 2.67.04.06.16.06.24.09.01-.09.05-.19.02-.27-.07-.16-.18-.31-.26-.47-.37-.76-.71-1.54-1.1-2.28-.61-1.14-1.24-2.26-1.88-3.37-.54-.94-1.11-1.85-1.68-2.78-.05-.08-.16-.11-.25-.16-.04.08-.09.16-.17.3zm-12.12 8.19c.25 2.06 3.16 5.78 4.7 5.97-1.25-2.3-2.77-4.29-4.7-5.97zm-1.82 2.57c.04-.02.09-.04.13-.06-.05-.12-.08-.26-.16-.36-.66-.83-1.32-1.66-1.99-2.47-.06-.07-.2-.07-.3-.11 0 .1-.04.23 0 .3.32.52.64 1.05 1.01 1.53.36.46.75.93 1.31 1.17zM45.04 98.07c-.02.1-.06.2-.07.3-.06 2.85-.12 5.69-.17 8.54-.01.38.03.75.05 1.13.04.73.6.98 1.15 1.23.1.04.22.06.32.1.55.23.75.66.55 1.23-.11.31-.36.41-.66.41h-5.13c-.64 0-.69-.05-.75-.85-.04-.46.21-.77.67-.84.24-.04.52-.05.72-.17.35-.2.54-.52.55-.96.12-3.18.27-6.36.41-9.54.04-.79.1-1.59.15-2.38.06-.82-.18-1.19-.94-1.48-.58-.22-.87-.82-.63-1.38.04-.1.2-.21.31-.21 1.61-.02 3.23-.02 4.84-.02.97 0 1.5.61 1.85 1.38.67 1.46 1.28 2.95 1.93 4.43.6 1.37 1.21 2.74 1.81 4.11.11.25.22.51.35.75.05.09.15.21.22.21.1-.01.24-.1.28-.19.27-.63.51-1.27.76-1.9.4-.99.81-1.98 1.22-2.97.27-.66.53-1.32.8-1.97.47-1.15.93-2.3 1.4-3.44.12-.29.38-.43.71-.43 1.84.01 3.67.03 5.51.04.35 0 .52.22.55.52.04.33.13.72-.33.88-.13.05-.26.1-.4.13-1.11.3-1.18.75-1.16 1.6.06 2.19.19 4.38.28 6.57.06 1.53.1 3.07.16 4.6.01.25.03.5.06.75.1.68.46 1 1.14 1.04.61.04.86.25.9.77.05.69-.14.95-.82.95-2.23 0-4.45-.01-6.68-.03-.44 0-.6-.18-.64-.61-.06-.67-.05-.69.49-.84.96-.26 1.34-.77 1.31-1.71-.07-1.88-.12-3.77-.19-5.65-.04-1.12-.1-2.23-.17-3.35-.01-.14-.12-.28-.18-.42-.09.12-.22.23-.28.36-.27.62-.52 1.26-.77 1.89l-.9 2.28c-.28.69-.57 1.38-.85 2.08-.27.68-.54 1.37-.81 2.05-.47 1.18-.92 2.35-1.41 3.52-.14.34-.43.56-.82.56-.5-.01-.89-.24-1.09-.71-.7-1.59-1.38-3.19-2.08-4.78-.62-1.4-1.25-2.79-1.87-4.18-.47-1.05-.92-2.11-1.39-3.17-.04-.08-.1-.16-.15-.23-.03-.01-.07 0-.11 0zM86.58 111c-1.11 0-2.23.01-3.34 0a.826.826 0 0 1-.74-1.21c.05-.1.21-.17.33-.22.24-.11.5-.17.73-.3.47-.26.76-.67.74-1.22-.13-3.05-.28-6.11-.42-9.16 0-.07.01-.15-.02-.21-.05-.1-.13-.19-.19-.28-.08.07-.2.12-.24.2-.26.6-.5 1.21-.75 1.81-.29.71-.59 1.41-.87 2.12-.37.93-.73 1.86-1.11 2.79-.4.99-.81 1.98-1.21 2.97-.27.67-.55 1.34-.8 2.01-.19.51-.57.86-.97.86-.48 0-.85-.34-1.06-.87-.39-.97-.81-1.92-1.22-2.88-.38-.88-.74-1.77-1.13-2.64-.37-.84-.75-1.67-1.12-2.51-.41-.94-.82-1.89-1.22-2.83-.19-.45-.38-.89-.6-1.33-.04-.09-.18-.13-.27-.2-.06.11-.18.22-.18.33 0 1.44.01 2.88.02 4.31l.03 5.24c0 1 .26 1.32 1.22 1.53.73.16 1.05.81.67 1.46-.08.14-.38.21-.57.21-1.34.01-2.67-.01-4.01-.01-.36 0-.72.03-1.08.03-.56.01-.79-.2-.83-.76-.04-.55.2-.87.7-.95.05-.01.11-.01.17-.02.71-.08 1.05-.43 1.09-1.14.13-2.83.25-5.66.37-8.49.05-1.13.11-2.26.16-3.39.03-.65-.21-1.18-.81-1.49-.54-.27-.69-.78-.81-1.3-.02-.08.08-.22.16-.27.08-.05.22-.04.33-.04 1.68 0 3.37.04 5.05 0 .61-.01.95.28 1.17.75.71 1.55 1.39 3.12 2.09 4.68.5 1.11 1.02 2.22 1.53 3.33.28.62.54 1.24.82 1.86.05.11.18.26.26.25.1-.01.24-.14.29-.25.49-1.19.96-2.4 1.45-3.59.38-.94.79-1.87 1.18-2.8.38-.91.74-1.83 1.12-2.74.18-.43.4-.86.65-1.25.09-.14.35-.25.53-.25 1.84-.01 3.67 0 5.51.01.39 0 .57.29.63.62.06.34.12.72-.36.85-.19.05-.37.13-.56.18-.72.17-1.06.55-1.04 1.3.04 1.35.11 2.71.17 4.06.07 1.53.15 3.07.24 4.6.07 1.18.16 2.37.25 3.55.04.52.47.88 1.05.96.62.08.66.13.66.76 0 1.03.1.97-.97.96h-2.88c.01.02.01.02.01.01zM25.45 114.49c1.49.05 2.98.02 4.46.16 1.57.14 3.08.56 4.1 1.92.72.97.89 2.08.69 3.26-.29 1.62-1.33 2.57-2.76 3.2-.18.08-.36.16-.52.26-.19.12-.19.27-.05.46.94 1.24 1.9 2.47 2.81 3.74.61.85 1.33 1.52 2.32 1.89.44.16.65.96.37 1.35-.06.09-.23.14-.36.14-1.08.02-2.17.02-3.25.04-1.06.02-1.84-.34-2.41-1.3-.75-1.27-1.62-2.46-2.44-3.68-.29-.43-.53-.9-.9-1.25-.29-.27-.72-.44-1.12-.54-.35-.09-.59.16-.58.53 0 1.27.01 2.54.04 3.81.02.57.36.85.93.94.21.03.56.13.59.26.07.34.03.71-.03 1.06-.01.08-.28.16-.43.16-2.1.01-4.2.01-6.31.01-.37 0-.52-.18-.52-.55.01-.86 0-.89.82-1.12.71-.21.92-.73.93-1.45.02-1.54.02-3.07.02-4.61v-5.45c0-1.07-.18-1.31-1.18-1.63-.52-.17-.68-.36-.62-.77.08-.54.33-.77.86-.77h4.55c-.01-.04-.01-.05-.01-.07zm.4 4.67s.01 0 0 0c.01.82.01 1.65.01 2.47 0 .44.11.55.54.53.61-.03 1.22-.05 1.83-.11 1.13-.11 1.91-.79 2.26-1.79.66-1.88-.46-3.82-2.59-3.93-.54-.03-1.08-.01-1.63-.02-.29-.01-.43.11-.43.42.02.81.01 1.62.01 2.43zM55.22 114.65c1.39 0 2.78-.03 4.17.01 1.42.05 2.8.32 4.05 1.02 1.07.6 1.94 1.42 2.6 2.47.61.97 1 2.03 1.19 3.14a7.74 7.74 0 0 1-.12 3.28c-.29 1.14-.76 2.18-1.48 3.1-1.08 1.39-2.51 2.25-4.18 2.76-2.22.67-4.5.47-6.76.48-1.31 0-2.62-.06-3.92-.09-.77-.02-1.1-.5-.81-1.21.03-.09.15-.15.24-.19.09-.04.19-.02.29-.03.78-.13 1.13-.44 1.18-1.21.07-1.11.09-2.23.11-3.35.04-2.23.07-4.47.08-6.7 0-.72-.1-1.43-.76-1.9-.1-.07-.21-.16-.32-.18-.64-.11-.77-.62-.9-1.12-.07-.28.12-.35.33-.36.61-.02 1.22-.03 1.84-.03h3.17v.11zm.67 7.96v5.78c0 .53.08.62.61.59.83-.05 1.66-.09 2.49-.2 1.1-.15 2.01-.7 2.7-1.58.62-.8.87-1.74 1.04-2.74.28-1.72.2-3.39-.38-5.03-.48-1.34-1.45-2.23-2.76-2.72-.98-.36-2-.44-3.04-.38-.57.03-.65.09-.65.67-.01 1.86-.01 3.73-.01 5.61zM33.72 100.62c0-1.54.01-3.07 0-4.61 0-.63-.19-1.14-.91-1.3-.48-.11-.7-.47-.69-.96 0-.42.12-.55.55-.55 1.56 0 3.12.01 4.68 0 1.14-.01.88-.04.94.94.01.26-.1.42-.36.48-.16.04-.32.1-.48.15-.54.19-.77.47-.79 1.04-.03 1.34-.03 2.68-.05 4.02-.02 1.59.03 3.19-.1 4.77-.17 2.06-.96 3.86-2.65 5.15-1.3.99-2.79 1.47-4.42 1.53-1.34.05-2.67.06-3.97-.35-1.67-.52-3.16-1.33-4.14-2.84-.45-.69-.74-1.48-.75-2.32-.03-2.83-.02-5.67-.05-8.5-.01-.58-.07-1.17-.21-1.73-.11-.44-.47-.71-.94-.78-.11-.02-.22-.05-.32-.08-.54-.17-.63-.33-.55-.9.07-.49.22-.62.76-.62h6.39c.33 0 .56.07.64.44.11.51.02.84-.31 1.03-.28.17-.6.29-.84.51-.15.14-.25.41-.25.63 0 3.08-.01 6.17.05 9.25.03 1.63.83 2.87 2.37 3.47.74.29 1.56.4 2.38.28 1.15-.17 2.22-.49 3.02-1.41.52-.61.87-1.3.9-2.11.06-1.55.09-3.1.14-4.64-.02.01-.03.01-.04.01zM83.11 122.58h2.63c.37 0 .68.1.84.49.17.41.04.79-.38.91-.55.16-.74.55-.77 1.06-.06 1.02-.1 2.04-.13 3.05-.02.52-.24.92-.68 1.17-2.06 1.2-4.24 2.05-6.67 1.93-3.04-.15-5.54-1.37-7.18-4.02-.8-1.28-1.14-2.73-1.16-4.25-.02-1.6.28-3.12 1.1-4.49.92-1.55 2.18-2.75 3.84-3.53 1.65-.77 3.38-1.06 5.16-.85.97.12 1.92.43 2.86.71.66.2 1.22.17 1.75-.29.07-.06.22-.12.28-.09.07.04.12.18.13.28.09 1.45.17 2.9.24 4.35.02.46-.28.66-.74.59-.62-.11-.87-.59-1.14-1.06-.59-1.02-1.41-1.78-2.54-2.1-1.07-.31-2.17-.32-3.23.1-1.74.69-2.59 2.08-3.01 3.83-.39 1.57-.37 3.13.06 4.68.45 1.61 1.3 2.94 2.9 3.6 1.13.47 2.31.48 3.46.03.36-.14.64-.42.63-.89-.01-.79.02-1.59.01-2.39-.01-.84-.23-1.12-1.02-1.35-.51-.15-.55-.27-.45-1.1.05-.41.33-.41.64-.41.85.01 1.7 0 2.55 0 .02.02.02.03.02.04zM114.73 102.05c0 1.9.01 3.8 0 5.69 0 .99.23 1.31 1.23 1.5.35.07.67.23.67.57 0 .37-.17.74-.29 1.11-.02.05-.17.08-.26.08-2.31 0-4.62 0-6.93-.01-.78 0-1.11-.44-.96-1.22.05-.28.24-.38.5-.42 1.44-.2 1.67-.47 1.67-1.94V96.02c0-.53-.08-.62-.61-.57-.98.1-1.96.21-2.94.33-.54.07-.82.48-1.05.92-.24.47-.46.95-.69 1.42-.22.45-1.1.67-1.49.36-.09-.07-.13-.28-.11-.41.15-1.12.32-2.24.49-3.36.05-.33.13-.66.14-.99.01-.4.18-.53.57-.53 2.49.01 4.98 0 7.48 0 2.74 0 5.48 0 8.23-.01.32 0 .5.09.54.43.19 1.41.39 2.82.58 4.23.04.26.06.54-.29.65-.44.14-.9.07-1.06-.21-.23-.4-.43-.81-.62-1.22-.53-1.15-1.56-1.76-2.82-1.65-.48.04-.97.06-1.46.05-.35-.01-.47.14-.47.47.01 2.04 0 4.08 0 6.12h-.05zM95.84 130.88c-2.02 0-4.03.01-6.05-.01-.25 0-.65-.13-.7-.29-.1-.32-.1-.75.04-1.04.11-.21.51-.27.8-.38.66-.24.8-.4.81-1.09.05-3.24.1-6.48.14-9.71.01-.42-.04-.84-.1-1.25-.08-.62-.4-.97-1.01-1.04-.72-.08-.82-.47-.7-1.18.02-.12.24-.28.38-.31.4-.07.8-.09 1.2-.1l10.35-.09c.71-.01.89.15.94.87.07.86.1 1.73.16 2.59.02.31-.03.61-.34.69-.27.07-.6.06-.87-.03-.18-.06-.35-.29-.44-.48-.52-1.08-1.43-1.57-2.56-1.68-.89-.08-1.78-.08-2.67-.11-.34-.01-.47.15-.47.48.01 1.48.01 2.96.01 4.44 0 .27.03.49.37.47.82-.05 1.64-.1 2.46-.16.61-.05 1.04-.39 1.41-.86.14-.18.42-.31.66-.35.51-.08.67.11.67.63 0 1.1 0 2.21.01 3.31 0 .32-.02.6-.38.7-.37.1-.74.18-.99-.26-.18-.32-.35-.67-.6-.93-.18-.19-.49-.33-.76-.35-.8-.05-1.61-.02-2.42-.03-.35-.01-.45.15-.45.49.01 1.48.01 2.96.01 4.44 0 .48.07.56.55.56.86-.01 1.73.02 2.58-.05.69-.06 1.37-.21 2.03-.41.54-.16.87-.63 1.13-1.12.15-.27.25-.56.39-.83.2-.4.82-.73 1.25-.69.38.04.69.42.61.8-.24 1.26-.5 2.52-.74 3.78-.08.41-.28.56-.72.55-2-.03-4.01-.01-6.01-.01.02.01.02.03.02.04zM97.19 110.98h-3.55c-.51 0-.56-.05-.54-.54 0-.13 0-.25-.01-.38-.03-.3.09-.48.38-.55.19-.05.37-.14.56-.18 1.06-.25 1.09-.65 1.1-1.44.03-2.74.04-5.47.05-8.21 0-1.26.02-2.51-.01-3.77-.02-.69-.23-.86-.88-1.09-.37-.13-.74-.33-1.02-.6-.38-.38-.15-.93.38-1.03.09-.02.19-.02.29-.02 2.31 0 4.62 0 6.93.01.5 0 .77.2.84.57.06.38-.13.66-.58.85-.12.05-.23.12-.35.14-1.13.25-1.16.72-1.19 1.66-.06 2.23-.08 4.47-.11 6.7-.02 1.44-.04 2.88-.03 4.31 0 .62.09 1.24.64 1.65.14.1.31.17.48.23.21.07.43.11.64.19.32.12.56.32.47.72-.09.41-.41.74-.78.74-1.24.01-2.48 0-3.72 0 .01.02.01.03.01.04zM41.07 122.86v-5.28c-.05-1-.39-1.4-1.38-1.57-.31-.05-.43-.18-.42-.49.02-1.12-.07-.98.95-.98 1.74 0 3.48-.03 5.22-.03.37 0 .75.04 1.12.08.28.03.42.2.4.49-.05.73.05.84-.68 1.04-.79.22-1.1.73-1.11 1.54-.01 3.18-.05 6.36-.08 9.54 0 .26.01.53.03.79.05.62.31.92.92 1.08.75.2.99.5.97 1.22-.01.27-.12.46-.39.51-.2.04-.41.07-.62.07l-5.72.03h-.29c-.68-.05-1.04-.8-.65-1.38.06-.09.2-.15.31-.19.21-.08.42-.15.63-.22.43-.14.68-.42.69-.89.02-1.07.05-2.15.07-3.22.01-.71 0-1.42 0-2.13.01-.01.02-.01.03-.01zM27.75 137.78c0 .69-.02 1.38 0 2.07.02.72-.03.79-.75.82-.34.01-.5-.14-.5-.46-.01-1.4-.01-2.79 0-4.19 0-.34.18-.51.54-.46.12.02.25.02.37 0 .36-.04.62.1.81.4.46.73.92 1.46 1.39 2.18.09.13.23.22.43.4.03-.21.06-.32.06-.43 0-.64-.02-1.28-.03-1.93-.01-.47.13-.61.62-.62.54-.01.63.07.64.57v3.94c0 .51-.11.54-.63.58-.61.06-.98-.15-1.27-.69-.35-.65-.78-1.25-1.19-1.86-.1-.15-.25-.26-.38-.39-.04.03-.08.05-.11.07zM46.6 135.52c.51.07 1.02.12 1.52.21.58.1.95.48 1.1 1.02.17.62-.04 1.16-.6 1.51-.33.21-.46.39-.13.74.3.32.5.73.73 1.11.22.38.12.47-.3.55-1.02.19-1.23-.63-1.62-1.24-.1-.16-.18-.35-.3-.5-.09-.1-.25-.14-.37-.21-.06.13-.18.25-.19.38-.02.33 0 .67 0 1-.01.43-.14.54-.65.55-.5 0-.6-.08-.61-.52-.01-1.35 0-2.71 0-4.06 0-.36.14-.55.53-.51.29.03.58.01.88.01.01-.01.01-.03.01-.04zm.44 2.23h.17c.41-.03.75-.3.74-.59-.01-.43-.38-.45-.67-.56-.06-.02-.14-.02-.21-.02-.49-.02-.62.1-.63.58 0 .52.09.6.6.59zM57.53 138.09v-1.97c0-.46.12-.58.57-.55.79.04 1.58.08 2.37.16.62.06.96.52 1.11 1.06.16.57-.06 1.07-.54 1.43-.09.07-.22.11-.26.2-.06.13-.12.32-.06.42.26.43.56.82.83 1.24.08.12.14.31.09.42-.04.09-.25.11-.39.15-1.03.25-1.21-.63-1.6-1.21-.11-.16-.18-.35-.3-.5-.09-.1-.24-.15-.36-.22-.07.14-.19.27-.2.41-.03.32 0 .64-.01.96-.01.47-.12.56-.67.56-.47 0-.58-.1-.58-.55v-2.01zm1.86-.34c.49-.01.9-.28.92-.61.02-.31-.36-.55-.89-.57-.49-.02-.63.11-.64.59-.01.53.07.6.61.59zM20.62 138.09v-1.93c0-.47.1-.58.55-.59.89-.01 1.78-.02 2.67-.02.39 0 .38.3.38.57 0 .27-.02.55-.41.54l-1.54-.03c-.34-.01-.38.22-.39.47-.01.25.06.45.36.45.46 0 .92 0 1.38-.01.39-.01.51.22.52.55.01.34-.21.43-.49.43-.45.01-.89.01-1.34 0-.45-.01-.42.32-.43.61-.01.31.12.45.46.43.5-.03 1-.02 1.5-.02.37 0 .53.2.51.61-.01.33-.16.51-.52.51-.88-.01-1.75-.01-2.63-.02-.49 0-.59-.11-.6-.59.02-.65.02-1.3.02-1.96zM39.32 138.1c0-.67.01-1.34 0-2.01-.01-.37.15-.52.53-.52.9.01 1.81-.01 2.71-.02.4 0 .38.29.38.56 0 .27 0 .56-.4.55-.51-.01-1.03-.01-1.54-.03-.33-.01-.4.2-.41.46-.01.26.06.48.39.47.43-.01.86-.02 1.29-.01.39 0 .57.19.57.56 0 .37-.25.43-.54.43-.42 0-.84.02-1.25-.01-.45-.03-.44.27-.46.57-.01.32.1.49.47.47.5-.03 1 0 1.5-.02.41-.01.49.24.48.57 0 .34-.12.56-.51.55-.89-.02-1.78-.03-2.67-.01-.4.01-.55-.15-.55-.55.02-.67.01-1.34.01-2.01zM73.15 138.11v-1.97c0-.46.11-.56.57-.57.86-.01 1.72-.01 2.59-.02.37 0 .44.24.44.53 0 .3-.05.58-.44.57-.46 0-.92-.01-1.38-.02-.33 0-.54.13-.53.49 0 .37.24.42.54.42.4-.01.81.01 1.21 0 .36-.01.5.18.51.51.01.33-.16.48-.49.48-.42 0-.83.01-1.25 0-.39-.01-.5.21-.51.55-.01.37.18.49.52.48.49-.01.97-.01 1.46 0 .4.01.54.18.54.58 0 .37-.17.53-.54.52-.9-.01-1.81-.01-2.71 0-.37 0-.53-.17-.52-.54 0-.67-.01-1.34-.01-2.01zM98.43 140.79c-.99-.01-1.87-.28-2.48-1.12-.96-1.32-.53-3.21 1-3.92.95-.44 1.89-.4 2.82.02.24.11.52.24.42.57-.11.35-.66.64-.91.51-.49-.25-.97-.36-1.52-.13-.7.3-1.05 1.13-.78 1.93.26.76 1 1.15 1.76.91.13-.04.26-.09.39-.14.16-.06.38-.22.47-.17.25.14.46.36.65.58.04.05-.03.26-.1.33-.49.43-1.07.64-1.72.63zM69.01 140.88c-.53-.16-1.01-.28-1.47-.46-.22-.08-.5-.23-.37-.55.14-.37.65-.58.93-.47.33.13.66.28 1.01.33.3.04.54-.15.59-.47.04-.32-.17-.43-.43-.53-.45-.18-.91-.35-1.34-.57-.91-.45-.81-1.88.08-2.38.92-.51 1.82-.42 2.72.02.27.13.32.33.1.57-.45.49-.47.48-1.05.2a1.21 1.21 0 0 0-.56-.1c-.29.01-.53.14-.56.46-.03.31.2.42.45.52.49.19.99.36 1.43.63.76.46.67 1.83-.17 2.31-.42.24-.9.33-1.36.49zM51.43 138.12v-1.97c0-.47.11-.59.56-.57.79.03 1.58.06 2.36.17.69.09 1.05.57 1.13 1.3.06.64-.27 1.24-.9 1.45-.44.15-.91.21-1.38.26-.36.04-.55.14-.5.54.03.26 0 .53.01.79 0 .34-.06.61-.5.59-.67-.02-.78-.08-.78-.58v-1.98zm1.83-.36c.46 0 .91-.3.92-.61.02-.3-.43-.56-.95-.57-.41 0-.52.14-.52.66 0 .45.08.53.55.52zM35.34 135.57c.57 0 1.14.01 1.71 0 .34-.01.48.16.49.48 0 .32-.06.59-.46.61-.04 0-.08.01-.13 0-1.17-.03-.96.09-.97 1.02-.01.8 0 1.59 0 2.39 0 .31-.03.59-.46.59-.74-.01-.86-.08-.86-.59v-2.85c0-.48-.08-.56-.56-.56h-.25c-.58.01-.72-.14-.65-.71.03-.28.17-.41.47-.4.56.02 1.11 0 1.67 0v.02zM90.71 138.1v-2.01c0-.48.09-.55.56-.52.06 0 .11.01.17 0 .54-.01.59.03.59.58v2.76c0 .56.05.62.62.61h.96c.39 0 .48.11.46.64-.01.31-.07.53-.47.51-.79-.03-1.58-.04-2.37-.01-.38.02-.51-.14-.51-.47-.01-.69-.01-1.39-.01-2.09zM85.43 138.09c0-.65.01-1.31 0-1.96-.01-.38.12-.59.53-.55.08.01.17 0 .25-.01.44-.02.54.06.55.52.01.95.01 1.9 0 2.84-.01.53.05.6.59.6.33 0 .67-.01 1 0 .37.01.5.17.48.61-.01.32-.12.54-.49.53-.78-.01-1.56-.01-2.33-.02-.49-.01-.57-.08-.57-.59-.01-.66-.01-1.32-.01-1.97zM65.08 138.12v2.01c0 .35-.12.55-.52.54-.7-.02-.8-.07-.8-.55-.01-1.34-.01-2.68 0-4.02 0-.47.11-.51.82-.54.41-.01.5.21.5.55v2.01zM79.2 141.5c-.54 0-.6-.09-.43-.62.1-.3.19-.61.25-.93.06-.34.23-.49.56-.47.14.01.28-.01.42-.01.28.01.38.13.27.41-.17.41-.33.82-.49 1.23-.15.39-.15.39-.58.39z"/><path d="M55.52 37.69c-.3-.17-.43.02-.57.2-1.1 1.39-2.2 2.77-3.3 4.16-.24.31-.49.61-.73.91-.23.29-.44.27-.6-.05-.77-1.59-1.54-3.17-2.31-4.75-.48-.97-.43-1.39.33-2.12 2.6-2.51 4.96-5.24 7.24-8.04 1.3-1.59 2.47-3.29 3.71-4.94.48-.63.97-1.26 1.46-1.88.1-.13.26-.22.49-.42v.73c0 1.09-.03 2.18-.01 3.27.02.66-.23 1.17-.65 1.66-1.72 2.03-3.43 4.07-5.14 6.11-.04.05-.11.1-.12.17-.03.11-.04.23-.05.35.13 0 .28.05.38 0 .55-.32 1.08-.67 1.62-1.01.9-.58 1.79-1.16 2.7-1.72.15-.09.44-.17.52-.1.12.11.19.38.15.55-.11.57-.26 1.14-.42 1.7-.39 1.39-.81 2.78-1.19 4.17-.09.32-.07.66-.08 1 0 .24.14.36.38.33.46-.04.92-.08 1.37-.14.63-.09 1.19.08 1.66.48.09.08.14.32.09.43-.3.7-.63 1.39-.95 2.09-.41.88-.82 1.76-1.24 2.64-.49 1.03-.98 2.05-1.48 3.08-.23.48-.46.95-.68 1.43-.03.07 0 .24.04.25.11.03.26.05.35 0 .49-.24.95-.53 1.44-.74 1.42-.62 2.85-1.22 4.28-1.83.05-.02.11-.04.16-.03.14.02.28.06.42.1-.07.11-.11.25-.2.34-.86.8-1.72 1.58-2.58 2.38-2.16 1.99-4.32 3.99-6.48 5.99-.39.36-.78.71-1.18 1.06-.07.06-.19.08-.28.12-.02-.11-.07-.23-.05-.33.07-.35.19-.7.26-1.05.02-.1-.06-.22-.1-.33-.1.04-.21.06-.29.12-1.01.83-2 1.68-3.04 2.48-1.51 1.16-3.03 2.3-4.59 3.4-.62.44-1.33.74-2.01 1.08-.09.05-.24-.04-.37-.06.07-.11.12-.23.21-.32 1.56-1.54 3.16-3.03 4.66-4.62.88-.93 1.32-2.15 1.54-3.42.18-1.01.31-2.04.45-3.06.02-.12-.03-.26-.04-.39-.13.04-.27.04-.38.11-1.06.73-2.12 1.48-3.18 2.22-1 .7-2 1.41-3 2.1-.09.06-.25.04-.38.05.04-.12.05-.26.13-.35 1.05-1.23 2.09-2.47 3.17-3.67 1.83-2.03 3.67-4.04 5.52-6.05.77-.84 1.21-1.86 1.66-2.87.4-.89.78-1.78 1.17-2.67.05-.12.08-.21.11-.3zM37.64 55.17c.05-.51.09-1.02.14-1.52.04-.46.09-.92.12-1.38.01-.1-.07-.2-.11-.3-.1.04-.23.05-.28.12-.87 1.07-1.76 2.12-2.58 3.23-.73.97-1.55 1.81-2.65 2.36-1.01.51-2.02 1.03-3.02 1.55-.22.11-.43.24-.66.34-.09.04-.24.05-.29 0-.06-.06-.07-.21-.03-.3.39-.89.8-1.77 1.19-2.66.19-.43.37-.87.54-1.31.04-.1-.01-.22-.01-.34-.13.02-.29-.01-.39.05-.57.36-1.13.75-1.7 1.12-.9.6-1.8 1.2-2.71 1.78-.35.22-.51.14-.63-.26-.14-.44-.26-.88-.46-1.29-.16-.33-.04-.51.16-.74.84-.95 1.7-1.88 2.49-2.87.98-1.21 1.88-2.48 2.85-3.7.49-.62 1.06-1.18 1.61-1.76.06-.07.19-.07.29-.1.02.11.09.25.05.34-.26.66-.54 1.31-.81 1.96-.18.44-.36.87-.51 1.32-.04.12.04.27.07.41.12-.06.3-.09.37-.19.98-1.41 1.95-2.84 2.93-4.26.93-1.35 1.87-2.7 2.8-4.05 1.08-1.57 2.15-3.14 3.24-4.71.34-.49.69-.98 1.06-1.45a.5.5 0 0 1 .35-.16c.05 0 .14.19.15.3.11.83.24 1.66.28 2.49.02.31-.15.65-.3.94-.71 1.38-1.46 2.75-2.16 4.14-.53 1.05-1 2.13-1.48 3.21-.06.13.01.33.02.49.16-.06.35-.08.47-.18 1.42-1.15 2.82-2.31 4.23-3.45.06-.05.17-.04.26-.06.02.1.06.22.04.31-.09.39-.22.78-.32 1.16-.29 1.1-.57 2.21-.88 3.31-.23.77-.48 1.54-.78 2.29-.58 1.4-1.4 2.66-2.54 3.67-.08.07-.18.11-.27.16-.05.03-.09.01-.14-.01zM79.44 36.26c.05.75.07 1.5.14 2.25.06.72-.07 1.37-.58 1.89-.72.74-.46 1.22-.17 1.9.53 1.25 1.1 2.48 1.57 3.76.37 1.01.63 2.07.92 3.11.03.11-.03.25-.05.38-.11-.06-.25-.1-.32-.19-1.19-1.49-2.37-2.99-3.55-4.49-.73-.93-1.46-1.86-2.2-2.78-.32-.39-.45-.75-.25-1.29.53-1.42.97-2.87 1.45-4.3.14-.41.42-.69.79-.87a26.2 26.2 0 0 1 1.63-.73c.43-.17.62-.03.66.44V36.26h-.04zM77.05 49.2c-.18.04-.31.12-.4.09-.31-.12-.61-.25-.9-.42-1.37-.77-2.73-1.53-4.08-2.32-.73-.43-1.01-1.19-1.32-1.92-.41-.97-.83-1.94-1.24-2.91-.38-.91-.75-1.82-1.13-2.73-.28-.68-.59-1.34-.86-2.02-.28-.7-.54-1.4-.79-2.11-.03-.09.06-.22.1-.33.1.05.24.08.29.16.3.5.57 1.02.87 1.52.5.85.97 1.72 1.52 2.52 1.26 1.83 2.52 3.67 3.86 5.44 1.22 1.61 2.55 3.13 3.83 4.69.07.09.13.18.25.34zM83.65 45.59c.08-.14.12-.22.17-.31.08.05.2.09.25.16.57.92 1.14 1.84 1.68 2.78.64 1.11 1.28 2.24 1.88 3.37.4.74.74 1.52 1.1 2.28.08.16.19.31.26.47.03.07-.01.18-.02.27-.08-.03-.2-.03-.24-.09-.68-.88-1.39-1.74-2-2.67-.67-1.02-1.31-2.06-1.85-3.16-.49-.99-.83-2.07-1.23-3.1zM71.53 53.78c1.93 1.68 3.45 3.67 4.7 5.97-1.54-.19-4.45-3.91-4.7-5.97zM69.71 56.35c-.56-.25-.95-.71-1.31-1.18-.37-.48-.69-1.01-1.01-1.53-.05-.07 0-.2 0-.3.1.03.24.04.3.11.67.82 1.33 1.64 1.99 2.47.08.1.11.24.16.36-.04.03-.09.05-.13.07z" class="st0"/></svg>