<?xml version="1.0" encoding="utf-8"?>
<!-- Generator: Adobe Illustrator 26.1.0, SVG Export Plug-In . SVG Version: 6.00 Build 0)  -->
<svg version="1.1" id="Layer_1" xmlns="http://www.w3.org/2000/svg" xmlns:xlink="http://www.w3.org/1999/xlink" x="0px" y="0px"
	 viewBox="0 0 26 26" style="enable-background:new 0 0 26 26;" xml:space="preserve">
<style type="text/css">
	.st0{fill:#041097;}
</style>
<path class="st0" d="M8.1,1.3c-0.4-1-1.4-1.5-2.4-1.2L5.4,0.1C2.1,1-0.7,4.2,0.1,8.1C2,17,9,24,17.9,25.9c3.9,0.8,7-2,7.9-5.3
	l0.1-0.3c0.3-1-0.2-2-1.2-2.4l-4.9-2.1c-0.8-0.4-1.8-0.1-2.4,0.6l-2,2.4C11.9,17,9,14.1,7.3,10.4l2.2-1.8c0.7-0.6,0.9-1.5,0.6-2.4
	L8.1,1.3z"/>
</svg>
