<?xml version="1.0" encoding="utf-8"?>
<!-- Generator: Adobe Illustrator 26.1.0, SVG Export Plug-In . SVG Version: 6.00 Build 0)  -->
<svg version="1.1" id="Layer_1" xmlns="http://www.w3.org/2000/svg" xmlns:xlink="http://www.w3.org/1999/xlink" x="0px" y="0px"
	 viewBox="0 0 124 144" style="enable-background:new 0 0 124 144;" xml:space="preserve">
<style type="text/css">
	.st0{fill:#FFFFFF;}
</style>
<path d="M2.5,97.8c0.1-0.19,0.24-0.36,0.28-0.56c0.34-1.83,1.43-3.02,3.1-3.75c1.8-0.78,3.64-0.83,5.51-0.37
	c0.62,0.15,1.24,0.29,1.85,0.49c0.48,0.15,0.86,0.03,1.26-0.22c0.18-0.11,0.46-0.21,0.64-0.14c0.13,0.04,0.21,0.36,0.22,0.56
	c0.09,1.46,0.15,2.93,0.23,4.39c0.02,0.48-0.18,0.67-0.65,0.61c-0.73-0.08-1.11-0.56-1.39-1.17c-0.44-0.96-1.13-1.67-2.08-2.13
	c-1.26-0.59-2.51-0.52-3.74,0.05c-0.63,0.29-1.01,0.81-1.06,1.5c-0.04,0.62,0.24,1.14,0.75,1.51c1.02,0.74,2.16,1.24,3.31,1.73
	c1.17,0.5,2.37,0.97,3.45,1.62c2.03,1.23,2.97,3.81,1.79,6.07c-0.8,1.53-2.06,2.49-3.68,3c-2.08,0.65-4.12,0.35-6.16-0.25
	c-0.92-0.27-1.84-0.24-2.75,0.09c-0.46,0.17-0.56,0.11-0.59-0.39c-0.03-0.49-0.06-0.98-0.12-1.46c-0.02-0.15-0.12-0.3-0.18-0.44
	c0-1.06,0-2.12,0-3.18c0.14-0.04,0.29-0.07,0.42-0.13c0.58-0.25,1.12-0.04,1.33,0.55c0.24,0.67,0.54,1.3,1.08,1.77
	c1.76,1.52,3.77,1.88,5.95,1.09c1.15-0.42,1.5-2.26,0.56-3.04c-0.39-0.33-0.9-0.52-1.38-0.74c-0.91-0.41-1.83-0.79-2.74-1.2
	c-1.01-0.45-2.06-0.85-3.01-1.41c-0.97-0.57-1.75-1.38-1.95-2.58c-0.03-0.21-0.18-0.4-0.27-0.59C2.5,98.64,2.5,98.22,2.5,97.8z"/>
<path class="st0" d="M2.5,99.06c0.09,0.2,0.24,0.39,0.27,0.59c0.2,1.21,0.98,2.01,1.95,2.58c0.95,0.56,2,0.95,3.01,1.41
	c0.91,0.41,1.84,0.78,2.74,1.2c0.47,0.22,0.99,0.41,1.38,0.74c0.93,0.78,0.59,2.63-0.56,3.04c-2.18,0.79-4.19,0.44-5.95-1.09
	c-0.54-0.46-0.84-1.1-1.08-1.77c-0.21-0.59-0.75-0.8-1.33-0.55c-0.14,0.06-0.28,0.09-0.42,0.13C2.5,103.25,2.5,101.15,2.5,99.06z"/>
<path d="M104.7,45.54c0.09,2.3-0.1,4.58-0.56,6.83c-0.33,1.65-0.68,3.31-1.14,4.92c-0.4,1.39-0.97,2.72-1.49,4.07
	c-0.74,1.96-1.73,3.79-2.81,5.58c-1.13,1.86-2.39,3.62-3.79,5.28c-1.99,2.37-4.18,4.53-6.66,6.37c-1.54,1.15-3.16,2.22-4.8,3.23
	c-1.33,0.82-2.72,1.55-4.14,2.22c-1.23,0.58-2.5,1.05-3.79,1.5c-1.32,0.46-2.66,0.93-4.02,1.21c-1.81,0.37-3.64,0.65-5.48,0.8
	c-1.88,0.16-3.78,0.22-5.67,0.16c-2.47-0.08-4.95-0.27-7.37-0.81c-1.59-0.35-3.18-0.68-4.74-1.15c-1.39-0.42-2.76-0.95-4.09-1.54
	c-1.47-0.65-2.92-1.35-4.31-2.15c-1.27-0.73-2.48-1.58-3.67-2.44c-2.63-1.9-4.98-4.13-7.08-6.6c-1.39-1.63-2.63-3.38-3.89-5.11
	c-0.68-0.94-1.33-1.93-1.87-2.96c-0.78-1.49-1.5-3.01-2.13-4.56c-0.59-1.45-1.08-2.95-1.49-4.47c-0.37-1.38-0.64-2.8-0.83-4.22
	c-0.24-1.75-0.37-3.52-0.53-5.29c-0.17-1.94-0.11-3.88,0.15-5.81c0.22-1.63,0.44-3.26,0.76-4.88c0.2-1.05,0.55-2.07,0.87-3.09
	c0.35-1.09,0.71-2.17,1.13-3.23c0.35-0.87,0.77-1.72,1.2-2.56c0.47-0.94,0.92-1.91,1.49-2.79c1.1-1.7,2.22-3.4,3.44-5.02
	c2.02-2.68,4.38-5.07,6.98-7.18c1.42-1.15,2.94-2.19,4.49-3.17c1.31-0.83,2.69-1.55,4.09-2.21c1.24-0.58,2.53-1.06,3.83-1.5
	c1.31-0.45,2.64-0.87,3.99-1.18c1.43-0.34,2.89-0.59,4.35-0.78c1.79-0.22,3.6-0.38,5.4-0.47c2.48-0.12,4.95,0.04,7.41,0.36
	c2.34,0.3,4.64,0.8,6.87,1.53c1.59,0.52,3.15,1.16,4.67,1.85c1.42,0.64,2.81,1.38,4.17,2.15c1.08,0.62,2.11,1.34,3.14,2.05
	c2.6,1.79,4.95,3.88,7.09,6.2c1.6,1.73,3.07,3.56,4.28,5.6c0.87,1.47,1.74,2.95,2.5,4.47c0.59,1.18,1.05,2.42,1.49,3.66
	c0.45,1.24,0.85,2.51,1.19,3.79c0.32,1.21,0.59,2.44,0.79,3.68c0.25,1.48,0.46,2.98,0.58,4.48C104.77,43.41,104.7,44.48,104.7,45.54
	z M100.79,45.21c-0.11-1.38-0.18-2.63-0.32-3.88c-0.12-1.16-0.25-2.33-0.48-3.48c-0.22-1.15-0.54-2.28-0.87-3.4
	c-0.34-1.16-0.68-2.33-1.15-3.43c-0.71-1.66-1.45-3.31-2.35-4.87c-0.91-1.59-1.96-3.11-3.07-4.57c-1.76-2.32-3.79-4.39-6.08-6.19
	c-1.07-0.84-2.18-1.64-3.31-2.39c-1.04-0.69-2.1-1.35-3.21-1.92c-1.31-0.67-2.66-1.25-4.01-1.81c-1.12-0.45-2.26-0.86-3.42-1.19
	c-1.15-0.33-2.33-0.53-3.49-0.8C66.73,6.74,64.36,6.6,62,6.54c-2.5-0.06-4.98,0.14-7.44,0.55c-1.1,0.18-2.18,0.43-3.26,0.72
	c-0.95,0.25-1.89,0.56-2.82,0.88c-1.01,0.35-2.03,0.68-2.99,1.13c-1.44,0.68-2.88,1.38-4.23,2.22c-1.58,0.98-3.12,2.04-4.58,3.19
	c-2.37,1.87-4.46,4.03-6.28,6.46c-0.75,1-1.5,2.01-2.14,3.08c-0.8,1.32-1.53,2.68-2.2,4.07c-0.55,1.13-1.05,2.31-1.46,3.5
	c-0.46,1.31-0.85,2.66-1.16,4.01c-0.35,1.52-0.67,3.06-0.84,4.6c-0.18,1.62-0.22,3.26-0.22,4.89c0,2,0.24,3.98,0.63,5.94
	c0.03,0.13,0.12,0.29,0.23,0.34c0.06,0.03,0.24-0.09,0.33-0.19c1.24-1.41,2.45-2.86,3.72-4.24c1.15-1.26,2.39-2.42,3.91-3.23
	c0.78-0.41,1.52-0.87,2.03-1.62c1.46-2.17,2.9-4.35,4.4-6.49c1.04-1.48,2.17-2.89,3.25-4.34c0.17-0.23,0.33-0.25,0.56-0.1
	c1.41,0.92,2.82,1.83,4.22,2.75c0.59,0.39,0.89,0.34,1.3-0.22c0.94-1.26,1.84-2.55,2.83-3.78c2.28-2.82,4.59-5.6,6.9-8.39
	c1.63-1.98,3.28-3.94,4.93-5.9c0.26-0.31,0.39-0.31,0.65,0.02c2.31,2.88,4.65,5.73,6.92,8.64c1.14,1.46,2.15,3.01,3.2,4.54
	c0.84,1.22,1.66,2.47,2.5,3.69c0.33,0.48,0.41,0.48,0.89,0.17c1.23-0.81,2.46-1.62,3.69-2.43c0.48-0.32,0.99-0.31,1.34,0.14
	c0.77,1,1.51,2.03,2.22,3.07c1.07,1.54,2.1,3.11,3.15,4.67c0.97,1.44,1.97,2.86,2.91,4.33c0.48,0.75,0.97,1.27,1.97,1.07
	c0.84-0.17,1.51,0.28,2.03,0.91c0.64,0.77,1.23,1.58,1.87,2.36c1.43,1.73,2.88,3.44,4.33,5.15c0.11,0.13,0.26,0.22,0.4,0.32
	c0.11-0.15,0.27-0.29,0.31-0.46c0.14-0.65,0.27-1.31,0.34-1.98C100.49,48.74,100.64,46.92,100.79,45.21z M55.52,37.69
	c-0.03,0.1-0.06,0.19-0.1,0.27c-0.39,0.89-0.78,1.78-1.17,2.67c-0.45,1.02-0.89,2.04-1.66,2.87c-1.85,2.01-3.7,4.02-5.52,6.05
	c-1.08,1.2-2.12,2.44-3.17,3.67c-0.08,0.09-0.09,0.23-0.13,0.35c0.13-0.01,0.28,0.01,0.38-0.05c1.01-0.69,2-1.4,3-2.1
	c1.06-0.74,2.11-1.48,3.18-2.22c0.1-0.07,0.25-0.08,0.38-0.11c0.01,0.13,0.06,0.26,0.04,0.39c-0.14,1.02-0.27,2.04-0.45,3.06
	c-0.22,1.27-0.67,2.48-1.54,3.42c-1.5,1.59-3.1,3.08-4.66,4.62c-0.09,0.09-0.14,0.21-0.21,0.32c0.12,0.02,0.28,0.1,0.37,0.06
	c0.68-0.34,1.4-0.64,2.01-1.08c1.55-1.1,3.08-2.24,4.59-3.4c1.04-0.8,2.02-1.66,3.04-2.48c0.08-0.06,0.19-0.08,0.29-0.12
	c0.04,0.11,0.12,0.23,0.1,0.33c-0.07,0.35-0.18,0.7-0.26,1.05c-0.02,0.1,0.03,0.22,0.05,0.33c0.1-0.04,0.21-0.06,0.28-0.12
	c0.4-0.35,0.79-0.7,1.18-1.06c2.16-2,4.32-3.99,6.48-5.99c0.86-0.79,1.73-1.58,2.58-2.38c0.09-0.09,0.13-0.22,0.2-0.34
	c-0.14-0.03-0.28-0.07-0.42-0.1c-0.05-0.01-0.11,0.01-0.16,0.03c-1.43,0.61-2.86,1.21-4.28,1.83c-0.49,0.22-0.96,0.51-1.44,0.74
	c-0.1,0.05-0.24,0.03-0.35,0c-0.04-0.01-0.07-0.18-0.04-0.25c0.22-0.48,0.45-0.95,0.68-1.43c0.49-1.03,0.99-2.05,1.48-3.08
	c0.42-0.88,0.83-1.76,1.24-2.64c0.32-0.69,0.65-1.38,0.95-2.09c0.05-0.12,0-0.36-0.09-0.43c-0.48-0.4-1.03-0.57-1.66-0.48
	c-0.45,0.07-0.91,0.1-1.37,0.14c-0.24,0.02-0.38-0.1-0.38-0.33c0.01-0.33-0.01-0.68,0.08-1c0.38-1.4,0.8-2.78,1.19-4.17
	c0.16-0.56,0.31-1.13,0.42-1.7c0.03-0.18-0.03-0.44-0.15-0.55c-0.08-0.07-0.37,0.01-0.52,0.1c-0.91,0.56-1.8,1.15-2.7,1.72
	c-0.54,0.34-1.07,0.69-1.62,1.01c-0.09,0.06-0.25,0-0.38,0c0.02-0.12,0.02-0.24,0.05-0.35c0.02-0.06,0.08-0.11,0.12-0.17
	c1.71-2.04,3.42-4.08,5.14-6.11c0.42-0.49,0.66-1,0.65-1.66c-0.03-1.09,0-2.18,0.01-3.27c0-0.2,0-0.4,0-0.73
	c-0.23,0.2-0.38,0.29-0.49,0.42c-0.49,0.62-0.99,1.24-1.46,1.88c-1.24,1.65-2.41,3.35-3.71,4.94c-2.28,2.79-4.64,5.52-7.24,8.04
	c-0.76,0.73-0.8,1.15-0.33,2.12c0.78,1.58,1.54,3.17,2.31,4.75c0.15,0.32,0.37,0.34,0.6,0.05c0.24-0.31,0.49-0.61,0.73-0.91
	c1.1-1.38,2.2-2.77,3.3-4.16C55.1,37.71,55.23,37.52,55.52,37.69z M37.64,55.17c0.04,0.02,0.08,0.04,0.12,0.06
	c0.09-0.05,0.19-0.09,0.27-0.16c1.15-1.01,1.96-2.27,2.54-3.67c0.31-0.74,0.56-1.51,0.78-2.29c0.32-1.1,0.59-2.2,0.88-3.31
	c0.1-0.39,0.22-0.77,0.32-1.16c0.02-0.09-0.03-0.21-0.04-0.31c-0.09,0.02-0.2,0.01-0.26,0.06c-1.41,1.15-2.82,2.31-4.23,3.45
	c-0.12,0.1-0.31,0.12-0.47,0.18c-0.01-0.16-0.08-0.36-0.02-0.49c0.48-1.08,0.95-2.16,1.48-3.21c0.7-1.39,1.45-2.75,2.16-4.14
	c0.15-0.29,0.31-0.63,0.3-0.94c-0.04-0.83-0.17-1.66-0.28-2.49c-0.01-0.11-0.1-0.3-0.15-0.3c-0.12,0.01-0.28,0.07-0.35,0.16
	c-0.36,0.47-0.72,0.96-1.06,1.45c-1.08,1.57-2.16,3.14-3.24,4.71c-0.93,1.35-1.87,2.7-2.8,4.05c-0.98,1.42-1.94,2.85-2.93,4.26
	c-0.07,0.1-0.24,0.13-0.37,0.19c-0.03-0.14-0.11-0.29-0.07-0.41c0.15-0.45,0.33-0.88,0.51-1.32c0.27-0.66,0.55-1.3,0.81-1.96
	c0.04-0.09-0.03-0.23-0.05-0.34c-0.1,0.03-0.23,0.03-0.29,0.1c-0.54,0.58-1.11,1.14-1.61,1.76c-0.97,1.22-1.88,2.49-2.85,3.7
	c-0.79,0.98-1.65,1.92-2.49,2.87c-0.2,0.22-0.32,0.41-0.16,0.74c0.2,0.41,0.32,0.86,0.46,1.29c0.13,0.4,0.29,0.48,0.63,0.26
	c0.91-0.59,1.81-1.19,2.71-1.78c0.57-0.37,1.13-0.76,1.7-1.12c0.1-0.06,0.26-0.04,0.39-0.05c0.01,0.11,0.05,0.24,0.01,0.34
	c-0.17,0.44-0.35,0.88-0.54,1.31c-0.39,0.89-0.8,1.77-1.19,2.66c-0.04,0.08-0.03,0.24,0.03,0.3c0.05,0.05,0.21,0.04,0.29,0
	c0.23-0.1,0.44-0.23,0.66-0.34c1.01-0.52,2.01-1.04,3.02-1.55c1.09-0.55,1.92-1.39,2.65-2.36c0.82-1.1,1.71-2.16,2.58-3.23
	c0.06-0.07,0.19-0.08,0.28-0.12c0.04,0.1,0.11,0.2,0.11,0.3c-0.03,0.46-0.07,0.92-0.12,1.38C37.74,54.15,37.69,54.66,37.64,55.17z
	 M79.44,36.26c0.01,0,0.02,0,0.03,0c0-0.28,0-0.56,0-0.84c0-0.03,0-0.06,0-0.08c-0.03-0.47-0.23-0.62-0.66-0.44
	c-0.55,0.23-1.09,0.47-1.63,0.73c-0.37,0.18-0.65,0.47-0.79,0.87c-0.48,1.44-0.92,2.89-1.45,4.3c-0.2,0.54-0.07,0.9,0.25,1.29
	c0.74,0.92,1.47,1.85,2.2,2.78c1.18,1.5,2.36,2.99,3.55,4.49c0.07,0.09,0.22,0.13,0.32,0.19c0.02-0.13,0.08-0.26,0.05-0.38
	c-0.29-1.04-0.55-2.1-0.92-3.11c-0.47-1.27-1.04-2.5-1.57-3.76c-0.29-0.68-0.54-1.16,0.17-1.9c0.51-0.53,0.64-1.17,0.58-1.89
	C79.51,37.76,79.48,37.01,79.44,36.26z M77.05,49.2c-0.12-0.16-0.18-0.25-0.25-0.34c-1.28-1.56-2.61-3.08-3.83-4.69
	c-1.34-1.77-2.6-3.61-3.86-5.44c-0.56-0.81-1.03-1.68-1.52-2.52c-0.3-0.5-0.57-1.02-0.87-1.52c-0.05-0.08-0.19-0.11-0.29-0.16
	c-0.03,0.11-0.13,0.24-0.1,0.33c0.25,0.71,0.51,1.41,0.79,2.11c0.27,0.68,0.58,1.35,0.86,2.02c0.38,0.91,0.75,1.83,1.13,2.73
	c0.41,0.97,0.82,1.94,1.24,2.91c0.31,0.73,0.58,1.49,1.32,1.92c1.35,0.78,2.72,1.55,4.08,2.32c0.29,0.16,0.59,0.3,0.9,0.42
	C76.74,49.32,76.87,49.24,77.05,49.2z M83.65,45.59c0.4,1.03,0.74,2.11,1.23,3.11c0.54,1.09,1.18,2.14,1.85,3.16
	c0.61,0.93,1.32,1.78,2,2.67c0.04,0.06,0.16,0.06,0.24,0.09c0.01-0.09,0.05-0.19,0.02-0.27c-0.07-0.16-0.18-0.31-0.26-0.47
	c-0.37-0.76-0.71-1.54-1.1-2.28c-0.61-1.14-1.24-2.26-1.88-3.37c-0.54-0.94-1.11-1.85-1.68-2.78c-0.05-0.08-0.16-0.11-0.25-0.16
	C83.78,45.37,83.73,45.45,83.65,45.59z M71.53,53.78c0.25,2.06,3.16,5.78,4.7,5.97C74.98,57.45,73.46,55.46,71.53,53.78z
	 M69.71,56.35c0.04-0.02,0.09-0.04,0.13-0.06c-0.05-0.12-0.08-0.26-0.16-0.36c-0.66-0.83-1.32-1.66-1.99-2.47
	c-0.06-0.07-0.2-0.07-0.3-0.11c0,0.1-0.04,0.23,0,0.3c0.32,0.52,0.64,1.05,1.01,1.53C68.76,55.64,69.15,56.11,69.71,56.35z"/>
<path d="M45.04,98.07c-0.02,0.1-0.06,0.2-0.07,0.3c-0.06,2.85-0.12,5.69-0.17,8.54c-0.01,0.38,0.03,0.75,0.05,1.13
	c0.04,0.73,0.6,0.98,1.15,1.23c0.1,0.04,0.22,0.06,0.32,0.1c0.55,0.23,0.75,0.66,0.55,1.23c-0.11,0.31-0.36,0.41-0.66,0.41
	c-0.88,0-1.75,0-2.63,0c-0.83,0-1.67,0-2.5,0c-0.64,0-0.69-0.05-0.75-0.85c-0.04-0.46,0.21-0.77,0.67-0.84
	c0.24-0.04,0.52-0.05,0.72-0.17c0.35-0.2,0.54-0.52,0.55-0.96c0.12-3.18,0.27-6.36,0.41-9.54c0.04-0.79,0.1-1.59,0.15-2.38
	c0.06-0.82-0.18-1.19-0.94-1.48c-0.58-0.22-0.87-0.82-0.63-1.38c0.04-0.1,0.2-0.21,0.31-0.21c1.61-0.02,3.23-0.02,4.84-0.02
	c0.97,0,1.5,0.61,1.85,1.38c0.67,1.46,1.28,2.95,1.93,4.43c0.6,1.37,1.21,2.74,1.81,4.11c0.11,0.25,0.22,0.51,0.35,0.75
	c0.05,0.09,0.15,0.21,0.22,0.21c0.1-0.01,0.24-0.1,0.28-0.19c0.27-0.63,0.51-1.27,0.76-1.9c0.4-0.99,0.81-1.98,1.22-2.97
	c0.27-0.66,0.53-1.32,0.8-1.97c0.47-1.15,0.93-2.3,1.4-3.44c0.12-0.29,0.38-0.43,0.71-0.43c1.84,0.01,3.67,0.03,5.51,0.04
	c0.35,0,0.52,0.22,0.55,0.52c0.04,0.33,0.13,0.72-0.33,0.88c-0.13,0.05-0.26,0.1-0.4,0.13c-1.11,0.3-1.18,0.75-1.16,1.6
	c0.06,2.19,0.19,4.38,0.28,6.57c0.06,1.53,0.1,3.07,0.16,4.6c0.01,0.25,0.03,0.5,0.06,0.75c0.1,0.68,0.46,1,1.14,1.04
	c0.61,0.04,0.86,0.25,0.9,0.77c0.05,0.69-0.14,0.95-0.82,0.95c-2.23,0-4.45-0.01-6.68-0.03c-0.44,0-0.6-0.18-0.64-0.61
	c-0.06-0.67-0.05-0.69,0.49-0.84c0.96-0.26,1.34-0.77,1.31-1.71c-0.07-1.88-0.12-3.77-0.19-5.65c-0.04-1.12-0.1-2.23-0.17-3.35
	c-0.01-0.14-0.12-0.28-0.18-0.42c-0.09,0.12-0.22,0.23-0.28,0.36c-0.27,0.62-0.52,1.26-0.77,1.89c-0.3,0.76-0.6,1.52-0.9,2.28
	c-0.28,0.69-0.57,1.38-0.85,2.08c-0.27,0.68-0.54,1.37-0.81,2.05c-0.47,1.18-0.92,2.35-1.41,3.52c-0.14,0.34-0.43,0.56-0.82,0.56
	c-0.5-0.01-0.89-0.24-1.09-0.71c-0.7-1.59-1.38-3.19-2.08-4.78c-0.62-1.4-1.25-2.79-1.87-4.18c-0.47-1.05-0.92-2.11-1.39-3.17
	c-0.04-0.08-0.1-0.16-0.15-0.23C45.12,98.06,45.08,98.07,45.04,98.07z"/>
<path d="M86.58,111c-1.11,0-2.23,0.01-3.34,0c-0.63,0-1.02-0.64-0.74-1.21c0.05-0.1,0.21-0.17,0.33-0.22
	c0.24-0.11,0.5-0.17,0.73-0.3c0.47-0.26,0.76-0.67,0.74-1.22c-0.13-3.05-0.28-6.11-0.42-9.16c0-0.07,0.01-0.15-0.02-0.21
	c-0.05-0.1-0.13-0.19-0.19-0.28c-0.08,0.07-0.2,0.12-0.24,0.2c-0.26,0.6-0.5,1.21-0.75,1.81c-0.29,0.71-0.59,1.41-0.87,2.12
	c-0.37,0.93-0.73,1.86-1.11,2.79c-0.4,0.99-0.81,1.98-1.21,2.97c-0.27,0.67-0.55,1.34-0.8,2.01c-0.19,0.51-0.57,0.86-0.97,0.86
	c-0.48,0-0.85-0.34-1.06-0.87c-0.39-0.97-0.81-1.92-1.22-2.88c-0.38-0.88-0.74-1.77-1.13-2.64c-0.37-0.84-0.75-1.67-1.12-2.51
	c-0.41-0.94-0.82-1.89-1.22-2.83c-0.19-0.45-0.38-0.89-0.6-1.33c-0.04-0.09-0.18-0.13-0.27-0.2c-0.06,0.11-0.18,0.22-0.18,0.33
	c0,1.44,0.01,2.88,0.02,4.31c0.01,1.75,0.02,3.49,0.03,5.24c0,1,0.26,1.32,1.22,1.53c0.73,0.16,1.05,0.81,0.67,1.46
	c-0.08,0.14-0.38,0.21-0.57,0.21c-1.34,0.01-2.67-0.01-4.01-0.01c-0.36,0-0.72,0.03-1.08,0.03c-0.56,0.01-0.79-0.2-0.83-0.76
	c-0.04-0.55,0.2-0.87,0.7-0.95c0.05-0.01,0.11-0.01,0.17-0.02c0.71-0.08,1.05-0.43,1.09-1.14c0.13-2.83,0.25-5.66,0.37-8.49
	c0.05-1.13,0.11-2.26,0.16-3.39c0.03-0.65-0.21-1.18-0.81-1.49c-0.54-0.27-0.69-0.78-0.81-1.3c-0.02-0.08,0.08-0.22,0.16-0.27
	c0.08-0.05,0.22-0.04,0.33-0.04c1.68,0,3.37,0.04,5.05,0c0.61-0.01,0.95,0.28,1.17,0.75c0.71,1.55,1.39,3.12,2.09,4.68
	c0.5,1.11,1.02,2.22,1.53,3.33c0.28,0.62,0.54,1.24,0.82,1.86c0.05,0.11,0.18,0.26,0.26,0.25c0.1-0.01,0.24-0.14,0.29-0.25
	c0.49-1.19,0.96-2.4,1.45-3.59c0.38-0.94,0.79-1.87,1.18-2.8c0.38-0.91,0.74-1.83,1.12-2.74c0.18-0.43,0.4-0.86,0.65-1.25
	c0.09-0.14,0.35-0.25,0.53-0.25c1.84-0.01,3.67,0,5.51,0.01c0.39,0,0.57,0.29,0.63,0.62c0.06,0.34,0.12,0.72-0.36,0.85
	c-0.19,0.05-0.37,0.13-0.56,0.18c-0.72,0.17-1.06,0.55-1.04,1.3c0.04,1.35,0.11,2.71,0.17,4.06c0.07,1.53,0.15,3.07,0.24,4.6
	c0.07,1.18,0.16,2.37,0.25,3.55c0.04,0.52,0.47,0.88,1.05,0.96c0.62,0.08,0.66,0.13,0.66,0.76c0,1.03,0.1,0.97-0.97,0.96
	c-0.96,0-1.92,0-2.88,0C86.58,111.01,86.58,111.01,86.58,111z"/>
<path d="M25.45,114.49c1.49,0.05,2.98,0.02,4.46,0.16c1.57,0.14,3.08,0.56,4.1,1.92c0.72,0.97,0.89,2.08,0.69,3.26
	c-0.29,1.62-1.33,2.57-2.76,3.2c-0.18,0.08-0.36,0.16-0.52,0.26c-0.19,0.12-0.19,0.27-0.05,0.46c0.94,1.24,1.9,2.47,2.81,3.74
	c0.61,0.85,1.33,1.52,2.32,1.89c0.44,0.16,0.65,0.96,0.37,1.35c-0.06,0.09-0.23,0.14-0.36,0.14c-1.08,0.02-2.17,0.02-3.25,0.04
	c-1.06,0.02-1.84-0.34-2.41-1.3c-0.75-1.27-1.62-2.46-2.44-3.68c-0.29-0.43-0.53-0.9-0.9-1.25c-0.29-0.27-0.72-0.44-1.12-0.54
	c-0.35-0.09-0.59,0.16-0.58,0.53c0,1.27,0.01,2.54,0.04,3.81c0.02,0.57,0.36,0.85,0.93,0.94c0.21,0.03,0.56,0.13,0.59,0.26
	c0.07,0.34,0.03,0.71-0.03,1.06c-0.01,0.08-0.28,0.16-0.43,0.16c-2.1,0.01-4.2,0.01-6.31,0.01c-0.37,0-0.52-0.18-0.52-0.55
	c0.01-0.86,0-0.89,0.82-1.12c0.71-0.21,0.92-0.73,0.93-1.45c0.02-1.54,0.02-3.07,0.02-4.61c0-1.82,0-3.63,0-5.45
	c0-1.07-0.18-1.31-1.18-1.63c-0.52-0.17-0.68-0.36-0.62-0.77c0.08-0.54,0.33-0.77,0.86-0.77c1.52,0,3.03,0,4.55,0
	C25.45,114.52,25.45,114.51,25.45,114.49z M25.85,119.16C25.85,119.16,25.86,119.16,25.85,119.16c0.01,0.82,0.01,1.65,0.01,2.47
	c0,0.44,0.11,0.55,0.54,0.53c0.61-0.03,1.22-0.05,1.83-0.11c1.13-0.11,1.91-0.79,2.26-1.79c0.66-1.88-0.46-3.82-2.59-3.93
	c-0.54-0.03-1.08-0.01-1.63-0.02c-0.29-0.01-0.43,0.11-0.43,0.42C25.86,117.54,25.85,118.35,25.85,119.16z"/>
<path d="M55.22,114.65c1.39,0,2.78-0.03,4.17,0.01c1.42,0.05,2.8,0.32,4.05,1.02c1.07,0.6,1.94,1.42,2.6,2.47
	c0.61,0.97,1,2.03,1.19,3.14c0.19,1.09,0.16,2.18-0.12,3.28c-0.29,1.14-0.76,2.18-1.48,3.1c-1.08,1.39-2.51,2.25-4.18,2.76
	c-2.22,0.67-4.5,0.47-6.76,0.48c-1.31,0-2.62-0.06-3.92-0.09c-0.77-0.02-1.1-0.5-0.81-1.21c0.03-0.09,0.15-0.15,0.24-0.19
	c0.09-0.04,0.19-0.02,0.29-0.03c0.78-0.13,1.13-0.44,1.18-1.21c0.07-1.11,0.09-2.23,0.11-3.35c0.04-2.23,0.07-4.47,0.08-6.7
	c0-0.72-0.1-1.43-0.76-1.9c-0.1-0.07-0.21-0.16-0.32-0.18c-0.64-0.11-0.77-0.62-0.9-1.12c-0.07-0.28,0.12-0.35,0.33-0.36
	c0.61-0.02,1.22-0.03,1.84-0.03c1.06,0,2.11,0,3.17,0C55.22,114.55,55.22,114.6,55.22,114.65z M55.89,122.61c0,1.93,0,3.85,0,5.78
	c0,0.53,0.08,0.62,0.61,0.59c0.83-0.05,1.66-0.09,2.49-0.2c1.1-0.15,2.01-0.7,2.7-1.58c0.62-0.8,0.87-1.74,1.04-2.74
	c0.28-1.72,0.2-3.39-0.38-5.03c-0.48-1.34-1.45-2.23-2.76-2.72c-0.98-0.36-2-0.44-3.04-0.38c-0.57,0.03-0.65,0.09-0.65,0.67
	C55.89,118.86,55.89,120.73,55.89,122.61z"/>
<path d="M33.72,100.62c0-1.54,0.01-3.07,0-4.61c0-0.63-0.19-1.14-0.91-1.3c-0.48-0.11-0.7-0.47-0.69-0.96
	c0-0.42,0.12-0.55,0.55-0.55c1.56,0,3.12,0.01,4.68,0c1.14-0.01,0.88-0.04,0.94,0.94c0.01,0.26-0.1,0.42-0.36,0.48
	c-0.16,0.04-0.32,0.1-0.48,0.15c-0.54,0.19-0.77,0.47-0.79,1.04c-0.03,1.34-0.03,2.68-0.05,4.02c-0.02,1.59,0.03,3.19-0.1,4.77
	c-0.17,2.06-0.96,3.86-2.65,5.15c-1.3,0.99-2.79,1.47-4.42,1.53c-1.34,0.05-2.67,0.06-3.97-0.35c-1.67-0.52-3.16-1.33-4.14-2.84
	c-0.45-0.69-0.74-1.48-0.75-2.32c-0.03-2.83-0.02-5.67-0.05-8.5c-0.01-0.58-0.07-1.17-0.21-1.73c-0.11-0.44-0.47-0.71-0.94-0.78
	c-0.11-0.02-0.22-0.05-0.32-0.08c-0.54-0.17-0.63-0.33-0.55-0.9c0.07-0.49,0.22-0.62,0.76-0.62c2.13,0,4.26,0,6.39,0
	c0.33,0,0.56,0.07,0.64,0.44c0.11,0.51,0.02,0.84-0.31,1.03c-0.28,0.17-0.6,0.29-0.84,0.51c-0.15,0.14-0.25,0.41-0.25,0.63
	c0,3.08-0.01,6.17,0.05,9.25c0.03,1.63,0.83,2.87,2.37,3.47c0.74,0.29,1.56,0.4,2.38,0.28c1.15-0.17,2.22-0.49,3.02-1.41
	c0.52-0.61,0.87-1.3,0.9-2.11c0.06-1.55,0.09-3.1,0.14-4.64C33.74,100.62,33.73,100.62,33.72,100.62z"/>
<path d="M83.11,122.58c0.88,0,1.75,0,2.63,0c0.37,0,0.68,0.1,0.84,0.49c0.17,0.41,0.04,0.79-0.38,0.91
	c-0.55,0.16-0.74,0.55-0.77,1.06c-0.06,1.02-0.1,2.04-0.13,3.05c-0.02,0.52-0.24,0.92-0.68,1.17c-2.06,1.2-4.24,2.05-6.67,1.93
	c-3.04-0.15-5.54-1.37-7.18-4.02c-0.8-1.28-1.14-2.73-1.16-4.25c-0.02-1.6,0.28-3.12,1.1-4.49c0.92-1.55,2.18-2.75,3.84-3.53
	c1.65-0.77,3.38-1.06,5.16-0.85c0.97,0.12,1.92,0.43,2.86,0.71c0.66,0.2,1.22,0.17,1.75-0.29c0.07-0.06,0.22-0.12,0.28-0.09
	c0.07,0.04,0.12,0.18,0.13,0.28c0.09,1.45,0.17,2.9,0.24,4.35c0.02,0.46-0.28,0.66-0.74,0.59c-0.62-0.11-0.87-0.59-1.14-1.06
	c-0.59-1.02-1.41-1.78-2.54-2.1c-1.07-0.31-2.17-0.32-3.23,0.1c-1.74,0.69-2.59,2.08-3.01,3.83c-0.39,1.57-0.37,3.13,0.06,4.68
	c0.45,1.61,1.3,2.94,2.9,3.6c1.13,0.47,2.31,0.48,3.46,0.03c0.36-0.14,0.64-0.42,0.63-0.89c-0.01-0.79,0.02-1.59,0.01-2.39
	c-0.01-0.84-0.23-1.12-1.02-1.35c-0.51-0.15-0.55-0.27-0.45-1.1c0.05-0.41,0.33-0.41,0.64-0.41c0.85,0.01,1.7,0,2.55,0
	C83.11,122.56,83.11,122.57,83.11,122.58z"/>
<path d="M114.73,102.05c0,1.9,0.01,3.8,0,5.69c0,0.99,0.23,1.31,1.23,1.5c0.35,0.07,0.67,0.23,0.67,0.57c0,0.37-0.17,0.74-0.29,1.11
	c-0.02,0.05-0.17,0.08-0.26,0.08c-2.31,0-4.62,0-6.93-0.01c-0.78,0-1.11-0.44-0.96-1.22c0.05-0.28,0.24-0.38,0.5-0.42
	c1.44-0.2,1.67-0.47,1.67-1.94c0-3.8,0-7.6,0-11.39c0-0.53-0.08-0.62-0.61-0.57c-0.98,0.1-1.96,0.21-2.94,0.33
	c-0.54,0.07-0.82,0.48-1.05,0.92c-0.24,0.47-0.46,0.95-0.69,1.42c-0.22,0.45-1.1,0.67-1.49,0.36c-0.09-0.07-0.13-0.28-0.11-0.41
	c0.15-1.12,0.32-2.24,0.49-3.36c0.05-0.33,0.13-0.66,0.14-0.99c0.01-0.4,0.18-0.53,0.57-0.53c2.49,0.01,4.98,0,7.48,0
	c2.74,0,5.48,0,8.23-0.01c0.32,0,0.5,0.09,0.54,0.43c0.19,1.41,0.39,2.82,0.58,4.23c0.04,0.26,0.06,0.54-0.29,0.65
	c-0.44,0.14-0.9,0.07-1.06-0.21c-0.23-0.4-0.43-0.81-0.62-1.22c-0.53-1.15-1.56-1.76-2.82-1.65c-0.48,0.04-0.97,0.06-1.46,0.05
	c-0.35-0.01-0.47,0.14-0.47,0.47c0.01,2.04,0,4.08,0,6.12C114.75,102.05,114.74,102.05,114.73,102.05z"/>
<path d="M95.84,130.88c-2.02,0-4.03,0.01-6.05-0.01c-0.25,0-0.65-0.13-0.7-0.29c-0.1-0.32-0.1-0.75,0.04-1.04
	c0.11-0.21,0.51-0.27,0.8-0.38c0.66-0.24,0.8-0.4,0.81-1.09c0.05-3.24,0.1-6.48,0.14-9.71c0.01-0.42-0.04-0.84-0.1-1.25
	c-0.08-0.62-0.4-0.97-1.01-1.04c-0.72-0.08-0.82-0.47-0.7-1.18c0.02-0.12,0.24-0.28,0.38-0.31c0.4-0.07,0.8-0.09,1.2-0.1
	c3.45-0.03,6.9-0.06,10.35-0.09c0.71-0.01,0.89,0.15,0.94,0.87c0.07,0.86,0.1,1.73,0.16,2.59c0.02,0.31-0.03,0.61-0.34,0.69
	c-0.27,0.07-0.6,0.06-0.87-0.03c-0.18-0.06-0.35-0.29-0.44-0.48c-0.52-1.08-1.43-1.57-2.56-1.68c-0.89-0.08-1.78-0.08-2.67-0.11
	c-0.34-0.01-0.47,0.15-0.47,0.48c0.01,1.48,0.01,2.96,0.01,4.44c0,0.27,0.03,0.49,0.37,0.47c0.82-0.05,1.64-0.1,2.46-0.16
	c0.61-0.05,1.04-0.39,1.41-0.86c0.14-0.18,0.42-0.31,0.66-0.35c0.51-0.08,0.67,0.11,0.67,0.63c0,1.1,0,2.21,0.01,3.31
	c0,0.32-0.02,0.6-0.38,0.7c-0.37,0.1-0.74,0.18-0.99-0.26c-0.18-0.32-0.35-0.67-0.6-0.93c-0.18-0.19-0.49-0.33-0.76-0.35
	c-0.8-0.05-1.61-0.02-2.42-0.03c-0.35-0.01-0.45,0.15-0.45,0.49c0.01,1.48,0.01,2.96,0.01,4.44c0,0.48,0.07,0.56,0.55,0.56
	c0.86-0.01,1.73,0.02,2.58-0.05c0.69-0.06,1.37-0.21,2.03-0.41c0.54-0.16,0.87-0.63,1.13-1.12c0.15-0.27,0.25-0.56,0.39-0.83
	c0.2-0.4,0.82-0.73,1.25-0.69c0.38,0.04,0.69,0.42,0.61,0.8c-0.24,1.26-0.5,2.52-0.74,3.78c-0.08,0.41-0.28,0.56-0.72,0.55
	c-2-0.03-4.01-0.01-6.01-0.01C95.84,130.85,95.84,130.87,95.84,130.88z"/>
<path d="M97.19,110.98c-1.18,0-2.37,0-3.55,0c-0.51,0-0.56-0.05-0.54-0.54c0-0.13,0-0.25-0.01-0.38c-0.03-0.3,0.09-0.48,0.38-0.55
	c0.19-0.05,0.37-0.14,0.56-0.18c1.06-0.25,1.09-0.65,1.1-1.44c0.03-2.74,0.04-5.47,0.05-8.21c0-1.26,0.02-2.51-0.01-3.77
	c-0.02-0.69-0.23-0.86-0.88-1.09c-0.37-0.13-0.74-0.33-1.02-0.6c-0.38-0.38-0.15-0.93,0.38-1.03c0.09-0.02,0.19-0.02,0.29-0.02
	c2.31,0,4.62,0,6.93,0.01c0.5,0,0.77,0.2,0.84,0.57c0.06,0.38-0.13,0.66-0.58,0.85c-0.12,0.05-0.23,0.12-0.35,0.14
	c-1.13,0.25-1.16,0.72-1.19,1.66c-0.06,2.23-0.08,4.47-0.11,6.7c-0.02,1.44-0.04,2.88-0.03,4.31c0,0.62,0.09,1.24,0.64,1.65
	c0.14,0.1,0.31,0.17,0.48,0.23c0.21,0.07,0.43,0.11,0.64,0.19c0.32,0.12,0.56,0.32,0.47,0.72c-0.09,0.41-0.41,0.74-0.78,0.74
	c-1.24,0.01-2.48,0-3.72,0C97.19,110.96,97.19,110.97,97.19,110.98z"/>
<path d="M41.07,122.86c0-1.68,0-3.35,0-5.03c0-0.08,0-0.17,0-0.25c-0.05-1-0.39-1.4-1.38-1.57c-0.31-0.05-0.43-0.18-0.42-0.49
	c0.02-1.12-0.07-0.98,0.95-0.98c1.74,0,3.48-0.03,5.22-0.03c0.37,0,0.75,0.04,1.12,0.08c0.28,0.03,0.42,0.2,0.4,0.49
	c-0.05,0.73,0.05,0.84-0.68,1.04c-0.79,0.22-1.1,0.73-1.11,1.54c-0.01,3.18-0.05,6.36-0.08,9.54c0,0.26,0.01,0.53,0.03,0.79
	c0.05,0.62,0.31,0.92,0.92,1.08c0.75,0.2,0.99,0.5,0.97,1.22c-0.01,0.27-0.12,0.46-0.39,0.51c-0.2,0.04-0.41,0.07-0.62,0.07
	c-1.91,0.01-3.81,0.02-5.72,0.03c-0.1,0-0.2,0-0.29,0c-0.68-0.05-1.04-0.8-0.65-1.38c0.06-0.09,0.2-0.15,0.31-0.19
	c0.21-0.08,0.42-0.15,0.63-0.22c0.43-0.14,0.68-0.42,0.69-0.89c0.02-1.07,0.05-2.15,0.07-3.22c0.01-0.71,0-1.42,0-2.13
	C41.05,122.86,41.06,122.86,41.07,122.86z"/>
<path d="M27.75,137.78c0,0.69-0.02,1.38,0,2.07c0.02,0.72-0.03,0.79-0.75,0.82c-0.34,0.01-0.5-0.14-0.5-0.46
	c-0.01-1.4-0.01-2.79,0-4.19c0-0.34,0.18-0.51,0.54-0.46c0.12,0.02,0.25,0.02,0.37,0c0.36-0.04,0.62,0.1,0.81,0.4
	c0.46,0.73,0.92,1.46,1.39,2.18c0.09,0.13,0.23,0.22,0.43,0.4c0.03-0.21,0.06-0.32,0.06-0.43c0-0.64-0.02-1.28-0.03-1.93
	c-0.01-0.47,0.13-0.61,0.62-0.62c0.54-0.01,0.63,0.07,0.64,0.57c0,1.31,0,2.63,0,3.94c0,0.51-0.11,0.54-0.63,0.58
	c-0.61,0.06-0.98-0.15-1.27-0.69c-0.35-0.65-0.78-1.25-1.19-1.86c-0.1-0.15-0.25-0.26-0.38-0.39
	C27.82,137.74,27.78,137.76,27.75,137.78z"/>
<path d="M46.6,135.52c0.51,0.07,1.02,0.12,1.52,0.21c0.58,0.1,0.95,0.48,1.1,1.02c0.17,0.62-0.04,1.16-0.6,1.51
	c-0.33,0.21-0.46,0.39-0.13,0.74c0.3,0.32,0.5,0.73,0.73,1.11c0.22,0.38,0.12,0.47-0.3,0.55c-1.02,0.19-1.23-0.63-1.62-1.24
	c-0.1-0.16-0.18-0.35-0.3-0.5c-0.09-0.1-0.25-0.14-0.37-0.21c-0.06,0.13-0.18,0.25-0.19,0.38c-0.02,0.33,0,0.67,0,1
	c-0.01,0.43-0.14,0.54-0.65,0.55c-0.5,0-0.6-0.08-0.61-0.52c-0.01-1.35,0-2.71,0-4.06c0-0.36,0.14-0.55,0.53-0.51
	c0.29,0.03,0.58,0.01,0.88,0.01C46.6,135.55,46.6,135.53,46.6,135.52z M47.04,137.75c0.06,0,0.11,0,0.17,0
	c0.41-0.03,0.75-0.3,0.74-0.59c-0.01-0.43-0.38-0.45-0.67-0.56c-0.06-0.02-0.14-0.02-0.21-0.02c-0.49-0.02-0.62,0.1-0.63,0.58
	C46.44,137.68,46.53,137.76,47.04,137.75z"/>
<path d="M57.53,138.09c0-0.66,0-1.31,0-1.97c0-0.46,0.12-0.58,0.57-0.55c0.79,0.04,1.58,0.08,2.37,0.16
	c0.62,0.06,0.96,0.52,1.11,1.06c0.16,0.57-0.06,1.07-0.54,1.43c-0.09,0.07-0.22,0.11-0.26,0.2c-0.06,0.13-0.12,0.32-0.06,0.42
	c0.26,0.43,0.56,0.82,0.83,1.24c0.08,0.12,0.14,0.31,0.09,0.42c-0.04,0.09-0.25,0.11-0.39,0.15c-1.03,0.25-1.21-0.63-1.6-1.21
	c-0.11-0.16-0.18-0.35-0.3-0.5c-0.09-0.1-0.24-0.15-0.36-0.22c-0.07,0.14-0.19,0.27-0.2,0.41c-0.03,0.32,0,0.64-0.01,0.96
	c-0.01,0.47-0.12,0.56-0.67,0.56c-0.47,0-0.58-0.1-0.58-0.55C57.53,139.43,57.53,138.76,57.53,138.09z M59.39,137.75
	c0.49-0.01,0.9-0.28,0.92-0.61c0.02-0.31-0.36-0.55-0.89-0.57c-0.49-0.02-0.63,0.11-0.64,0.59
	C58.77,137.69,58.85,137.76,59.39,137.75z"/>
<path d="M20.62,138.09c0-0.64,0-1.28,0-1.93c0-0.47,0.1-0.58,0.55-0.59c0.89-0.01,1.78-0.02,2.67-0.02c0.39,0,0.38,0.3,0.38,0.57
	c0,0.27-0.02,0.55-0.41,0.54c-0.51-0.01-1.03-0.02-1.54-0.03c-0.34-0.01-0.38,0.22-0.39,0.47c-0.01,0.25,0.06,0.45,0.36,0.45
	c0.46,0,0.92,0,1.38-0.01c0.39-0.01,0.51,0.22,0.52,0.55c0.01,0.34-0.21,0.43-0.49,0.43c-0.45,0.01-0.89,0.01-1.34,0
	c-0.45-0.01-0.42,0.32-0.43,0.61c-0.01,0.31,0.12,0.45,0.46,0.43c0.5-0.03,1-0.02,1.5-0.02c0.37,0,0.53,0.2,0.51,0.61
	c-0.01,0.33-0.16,0.51-0.52,0.51c-0.88-0.01-1.75-0.01-2.63-0.02c-0.49,0-0.59-0.11-0.6-0.59C20.62,139.4,20.62,138.75,20.62,138.09
	z"/>
<path d="M39.32,138.1c0-0.67,0.01-1.34,0-2.01c-0.01-0.37,0.15-0.52,0.53-0.52c0.9,0.01,1.81-0.01,2.71-0.02
	c0.4,0,0.38,0.29,0.38,0.56c0,0.27,0,0.56-0.4,0.55c-0.51-0.01-1.03-0.01-1.54-0.03c-0.33-0.01-0.4,0.2-0.41,0.46
	c-0.01,0.26,0.06,0.48,0.39,0.47c0.43-0.01,0.86-0.02,1.29-0.01c0.39,0,0.57,0.19,0.57,0.56c0,0.37-0.25,0.43-0.54,0.43
	c-0.42,0-0.84,0.02-1.25-0.01c-0.45-0.03-0.44,0.27-0.46,0.57c-0.01,0.32,0.1,0.49,0.47,0.47c0.5-0.03,1,0,1.5-0.02
	c0.41-0.01,0.49,0.24,0.48,0.57c0,0.34-0.12,0.56-0.51,0.55c-0.89-0.02-1.78-0.03-2.67-0.01c-0.4,0.01-0.55-0.15-0.55-0.55
	C39.33,139.44,39.32,138.77,39.32,138.1z"/>
<path d="M73.15,138.11c0-0.66,0-1.31,0-1.97c0-0.46,0.11-0.56,0.57-0.57c0.86-0.01,1.72-0.01,2.59-0.02c0.37,0,0.44,0.24,0.44,0.53
	c0,0.3-0.05,0.58-0.44,0.57c-0.46,0-0.92-0.01-1.38-0.02c-0.33,0-0.54,0.13-0.53,0.49c0,0.37,0.24,0.42,0.54,0.42
	c0.4-0.01,0.81,0.01,1.21,0c0.36-0.01,0.5,0.18,0.51,0.51c0.01,0.33-0.16,0.48-0.49,0.48c-0.42,0-0.83,0.01-1.25,0
	c-0.39-0.01-0.5,0.21-0.51,0.55c-0.01,0.37,0.18,0.49,0.52,0.48c0.49-0.01,0.97-0.01,1.46,0c0.4,0.01,0.54,0.18,0.54,0.58
	c0,0.37-0.17,0.53-0.54,0.52c-0.9-0.01-1.81-0.01-2.71,0c-0.37,0-0.53-0.17-0.52-0.54C73.16,139.45,73.15,138.78,73.15,138.11z"/>
<path d="M98.43,140.79c-0.99-0.01-1.87-0.28-2.48-1.12c-0.96-1.32-0.53-3.21,1-3.92c0.95-0.44,1.89-0.4,2.82,0.02
	c0.24,0.11,0.52,0.24,0.42,0.57c-0.11,0.35-0.66,0.64-0.91,0.51c-0.49-0.25-0.97-0.36-1.52-0.13c-0.7,0.3-1.05,1.13-0.78,1.93
	c0.26,0.76,1,1.15,1.76,0.91c0.13-0.04,0.26-0.09,0.39-0.14c0.16-0.06,0.38-0.22,0.47-0.17c0.25,0.14,0.46,0.36,0.65,0.58
	c0.04,0.05-0.03,0.26-0.1,0.33C99.66,140.59,99.08,140.8,98.43,140.79z"/>
<path d="M69.01,140.88c-0.53-0.16-1.01-0.28-1.47-0.46c-0.22-0.08-0.5-0.23-0.37-0.55c0.14-0.37,0.65-0.58,0.93-0.47
	c0.33,0.13,0.66,0.28,1.01,0.33c0.3,0.04,0.54-0.15,0.59-0.47c0.04-0.32-0.17-0.43-0.43-0.53c-0.45-0.18-0.91-0.35-1.34-0.57
	c-0.91-0.45-0.81-1.88,0.08-2.38c0.92-0.51,1.82-0.42,2.72,0.02c0.27,0.13,0.32,0.33,0.1,0.57c-0.45,0.49-0.47,0.48-1.05,0.2
	c-0.17-0.08-0.38-0.11-0.56-0.1c-0.29,0.01-0.53,0.14-0.56,0.46c-0.03,0.31,0.2,0.42,0.45,0.52c0.49,0.19,0.99,0.36,1.43,0.63
	c0.76,0.46,0.67,1.83-0.17,2.31C69.95,140.63,69.47,140.72,69.01,140.88z"/>
<path d="M51.43,138.12c0-0.66,0-1.31,0-1.97c0-0.47,0.11-0.59,0.56-0.57c0.79,0.03,1.58,0.06,2.36,0.17
	c0.69,0.09,1.05,0.57,1.13,1.3c0.06,0.64-0.27,1.24-0.9,1.45c-0.44,0.15-0.91,0.21-1.38,0.26c-0.36,0.04-0.55,0.14-0.5,0.54
	c0.03,0.26,0,0.53,0.01,0.79c0,0.34-0.06,0.61-0.5,0.59c-0.67-0.02-0.78-0.08-0.78-0.58C51.43,139.43,51.43,138.77,51.43,138.12z
	 M53.26,137.76c0.46,0,0.91-0.3,0.92-0.61c0.02-0.3-0.43-0.56-0.95-0.57c-0.41,0-0.52,0.14-0.52,0.66
	C52.71,137.69,52.79,137.77,53.26,137.76z"/>
<path d="M35.34,135.57c0.57,0,1.14,0.01,1.71,0c0.34-0.01,0.48,0.16,0.49,0.48c0,0.32-0.06,0.59-0.46,0.61c-0.04,0-0.08,0.01-0.13,0
	c-1.17-0.03-0.96,0.09-0.97,1.02c-0.01,0.8,0,1.59,0,2.39c0,0.31-0.03,0.59-0.46,0.59c-0.74-0.01-0.86-0.08-0.86-0.59
	c0-0.95,0-1.9,0-2.85c0-0.48-0.08-0.56-0.56-0.56c-0.08,0-0.17,0-0.25,0c-0.58,0.01-0.72-0.14-0.65-0.71
	c0.03-0.28,0.17-0.41,0.47-0.4c0.56,0.02,1.11,0,1.67,0C35.34,135.56,35.34,135.57,35.34,135.57z"/>
<path d="M90.71,138.1c0-0.67,0-1.34,0-2.01c0-0.48,0.09-0.55,0.56-0.52c0.06,0,0.11,0.01,0.17,0c0.54-0.01,0.59,0.03,0.59,0.58
	c0,0.92,0,1.84,0,2.76c0,0.56,0.05,0.62,0.62,0.61c0.32,0,0.64,0,0.96,0c0.39,0,0.48,0.11,0.46,0.64c-0.01,0.31-0.07,0.53-0.47,0.51
	c-0.79-0.03-1.58-0.04-2.37-0.01c-0.38,0.02-0.51-0.14-0.51-0.47C90.71,139.5,90.71,138.8,90.71,138.1z"/>
<path d="M85.43,138.09c0-0.65,0.01-1.31,0-1.96c-0.01-0.38,0.12-0.59,0.53-0.55c0.08,0.01,0.17,0,0.25-0.01
	c0.44-0.02,0.54,0.06,0.55,0.52c0.01,0.95,0.01,1.9,0,2.84c-0.01,0.53,0.05,0.6,0.59,0.6c0.33,0,0.67-0.01,1,0
	c0.37,0.01,0.5,0.17,0.48,0.61c-0.01,0.32-0.12,0.54-0.49,0.53c-0.78-0.01-1.56-0.01-2.33-0.02c-0.49-0.01-0.57-0.08-0.57-0.59
	C85.43,139.4,85.43,138.74,85.43,138.09z"/>
<path d="M65.08,138.12c0,0.67,0,1.34,0,2.01c0,0.35-0.12,0.55-0.52,0.54c-0.7-0.02-0.8-0.07-0.8-0.55c-0.01-1.34-0.01-2.68,0-4.02
	c0-0.47,0.11-0.51,0.82-0.54c0.41-0.01,0.5,0.21,0.5,0.55C65.08,136.78,65.08,137.45,65.08,138.12z"/>
<path d="M79.2,141.5c-0.54,0-0.6-0.09-0.43-0.62c0.1-0.3,0.19-0.61,0.25-0.93c0.06-0.34,0.23-0.49,0.56-0.47
	c0.14,0.01,0.28-0.01,0.42-0.01c0.28,0.01,0.38,0.13,0.27,0.41c-0.17,0.41-0.33,0.82-0.49,1.23C79.63,141.5,79.63,141.5,79.2,141.5z
	"/>
<path class="st0" d="M55.52,37.69c-0.3-0.17-0.43,0.02-0.57,0.2c-1.1,1.39-2.2,2.77-3.3,4.16c-0.24,0.31-0.49,0.61-0.73,0.91
	c-0.23,0.29-0.44,0.27-0.6-0.05c-0.77-1.59-1.54-3.17-2.31-4.75c-0.48-0.97-0.43-1.39,0.33-2.12c2.6-2.51,4.96-5.24,7.24-8.04
	c1.3-1.59,2.47-3.29,3.71-4.94c0.48-0.63,0.97-1.26,1.46-1.88c0.1-0.13,0.26-0.22,0.49-0.42c0,0.33,0,0.53,0,0.73
	c0,1.09-0.03,2.18-0.01,3.27c0.02,0.66-0.23,1.17-0.65,1.66c-1.72,2.03-3.43,4.07-5.14,6.11c-0.04,0.05-0.11,0.1-0.12,0.17
	c-0.03,0.11-0.04,0.23-0.05,0.35c0.13,0,0.28,0.05,0.38,0c0.55-0.32,1.08-0.67,1.62-1.01c0.9-0.58,1.79-1.16,2.7-1.72
	c0.15-0.09,0.44-0.17,0.52-0.1c0.12,0.11,0.19,0.38,0.15,0.55c-0.11,0.57-0.26,1.14-0.42,1.7c-0.39,1.39-0.81,2.78-1.19,4.17
	c-0.09,0.32-0.07,0.66-0.08,1c0,0.24,0.14,0.36,0.38,0.33c0.46-0.04,0.92-0.08,1.37-0.14c0.63-0.09,1.19,0.08,1.66,0.48
	c0.09,0.08,0.14,0.32,0.09,0.43c-0.3,0.7-0.63,1.39-0.95,2.09c-0.41,0.88-0.82,1.76-1.24,2.64c-0.49,1.03-0.98,2.05-1.48,3.08
	c-0.23,0.48-0.46,0.95-0.68,1.43c-0.03,0.07,0,0.24,0.04,0.25c0.11,0.03,0.26,0.05,0.35,0c0.49-0.24,0.95-0.53,1.44-0.74
	c1.42-0.62,2.85-1.22,4.28-1.83c0.05-0.02,0.11-0.04,0.16-0.03c0.14,0.02,0.28,0.06,0.42,0.1c-0.07,0.11-0.11,0.25-0.2,0.34
	c-0.86,0.8-1.72,1.58-2.58,2.38c-2.16,1.99-4.32,3.99-6.48,5.99c-0.39,0.36-0.78,0.71-1.18,1.06c-0.07,0.06-0.19,0.08-0.28,0.12
	c-0.02-0.11-0.07-0.23-0.05-0.33c0.07-0.35,0.19-0.7,0.26-1.05c0.02-0.1-0.06-0.22-0.1-0.33c-0.1,0.04-0.21,0.06-0.29,0.12
	c-1.01,0.83-2,1.68-3.04,2.48c-1.51,1.16-3.03,2.3-4.59,3.4c-0.62,0.44-1.33,0.74-2.01,1.08c-0.09,0.05-0.24-0.04-0.37-0.06
	c0.07-0.11,0.12-0.23,0.21-0.32c1.56-1.54,3.16-3.03,4.66-4.62c0.88-0.93,1.32-2.15,1.54-3.42c0.18-1.01,0.31-2.04,0.45-3.06
	c0.02-0.12-0.03-0.26-0.04-0.39c-0.13,0.04-0.27,0.04-0.38,0.11c-1.06,0.73-2.12,1.48-3.18,2.22c-1,0.7-2,1.41-3,2.1
	c-0.09,0.06-0.25,0.04-0.38,0.05c0.04-0.12,0.05-0.26,0.13-0.35c1.05-1.23,2.09-2.47,3.17-3.67c1.83-2.03,3.67-4.04,5.52-6.05
	c0.77-0.84,1.21-1.86,1.66-2.87c0.4-0.89,0.78-1.78,1.17-2.67C55.46,37.87,55.49,37.78,55.52,37.69z"/>
<path class="st0" d="M37.64,55.17c0.05-0.51,0.09-1.02,0.14-1.52c0.04-0.46,0.09-0.92,0.12-1.38c0.01-0.1-0.07-0.2-0.11-0.3
	c-0.1,0.04-0.23,0.05-0.28,0.12c-0.87,1.07-1.76,2.12-2.58,3.23c-0.73,0.97-1.55,1.81-2.65,2.36c-1.01,0.51-2.02,1.03-3.02,1.55
	c-0.22,0.11-0.43,0.24-0.66,0.34c-0.09,0.04-0.24,0.05-0.29,0c-0.06-0.06-0.07-0.21-0.03-0.3c0.39-0.89,0.8-1.77,1.19-2.66
	c0.19-0.43,0.37-0.87,0.54-1.31c0.04-0.1-0.01-0.22-0.01-0.34c-0.13,0.02-0.29-0.01-0.39,0.05c-0.57,0.36-1.13,0.75-1.7,1.12
	c-0.9,0.6-1.8,1.2-2.71,1.78c-0.35,0.22-0.51,0.14-0.63-0.26c-0.14-0.44-0.26-0.88-0.46-1.29c-0.16-0.33-0.04-0.51,0.16-0.74
	c0.84-0.95,1.7-1.88,2.49-2.87c0.98-1.21,1.88-2.48,2.85-3.7c0.49-0.62,1.06-1.18,1.61-1.76c0.06-0.07,0.19-0.07,0.29-0.1
	c0.02,0.11,0.09,0.25,0.05,0.34c-0.26,0.66-0.54,1.31-0.81,1.96c-0.18,0.44-0.36,0.87-0.51,1.32c-0.04,0.12,0.04,0.27,0.07,0.41
	c0.12-0.06,0.3-0.09,0.37-0.19c0.98-1.41,1.95-2.84,2.93-4.26c0.93-1.35,1.87-2.7,2.8-4.05c1.08-1.57,2.15-3.14,3.24-4.71
	c0.34-0.49,0.69-0.98,1.06-1.45c0.07-0.09,0.23-0.16,0.35-0.16c0.05,0,0.14,0.19,0.15,0.3c0.11,0.83,0.24,1.66,0.28,2.49
	c0.02,0.31-0.15,0.65-0.3,0.94c-0.71,1.38-1.46,2.75-2.16,4.14c-0.53,1.05-1,2.13-1.48,3.21c-0.06,0.13,0.01,0.33,0.02,0.49
	c0.16-0.06,0.35-0.08,0.47-0.18c1.42-1.15,2.82-2.31,4.23-3.45c0.06-0.05,0.17-0.04,0.26-0.06c0.02,0.1,0.06,0.22,0.04,0.31
	c-0.09,0.39-0.22,0.78-0.32,1.16c-0.29,1.1-0.57,2.21-0.88,3.31c-0.23,0.77-0.48,1.54-0.78,2.29c-0.58,1.4-1.4,2.66-2.54,3.67
	c-0.08,0.07-0.18,0.11-0.27,0.16C37.73,55.21,37.69,55.19,37.64,55.17z"/>
<path class="st0" d="M79.44,36.26c0.05,0.75,0.07,1.5,0.14,2.25c0.06,0.72-0.07,1.37-0.58,1.89c-0.72,0.74-0.46,1.22-0.17,1.9
	c0.53,1.25,1.1,2.48,1.57,3.76c0.37,1.01,0.63,2.07,0.92,3.11c0.03,0.11-0.03,0.25-0.05,0.38c-0.11-0.06-0.25-0.1-0.32-0.19
	c-1.19-1.49-2.37-2.99-3.55-4.49c-0.73-0.93-1.46-1.86-2.2-2.78c-0.32-0.39-0.45-0.75-0.25-1.29c0.53-1.42,0.97-2.87,1.45-4.3
	c0.14-0.41,0.42-0.69,0.79-0.87c0.54-0.26,1.08-0.51,1.63-0.73c0.43-0.17,0.62-0.03,0.66,0.44c0,0.03,0,0.06,0,0.08
	c0,0.28,0,0.56,0,0.84C79.46,36.26,79.45,36.26,79.44,36.26z"/>
<path class="st0" d="M77.05,49.2c-0.18,0.04-0.31,0.12-0.4,0.09c-0.31-0.12-0.61-0.25-0.9-0.42c-1.37-0.77-2.73-1.53-4.08-2.32
	c-0.73-0.43-1.01-1.19-1.32-1.92c-0.41-0.97-0.83-1.94-1.24-2.91c-0.38-0.91-0.75-1.82-1.13-2.73c-0.28-0.68-0.59-1.34-0.86-2.02
	c-0.28-0.7-0.54-1.4-0.79-2.11c-0.03-0.09,0.06-0.22,0.1-0.33c0.1,0.05,0.24,0.08,0.29,0.16c0.3,0.5,0.57,1.02,0.87,1.52
	c0.5,0.85,0.97,1.72,1.52,2.52c1.26,1.83,2.52,3.67,3.86,5.44c1.22,1.61,2.55,3.13,3.83,4.69C76.87,48.95,76.93,49.04,77.05,49.2z"
	/>
<path class="st0" d="M83.65,45.59c0.08-0.14,0.12-0.22,0.17-0.31c0.08,0.05,0.2,0.09,0.25,0.16c0.57,0.92,1.14,1.84,1.68,2.78
	c0.64,1.11,1.28,2.24,1.88,3.37c0.4,0.74,0.74,1.52,1.1,2.28c0.08,0.16,0.19,0.31,0.26,0.47c0.03,0.07-0.01,0.18-0.02,0.27
	c-0.08-0.03-0.2-0.03-0.24-0.09c-0.68-0.88-1.39-1.74-2-2.67c-0.67-1.02-1.31-2.06-1.85-3.16C84.39,47.7,84.05,46.62,83.65,45.59z"
	/>
<path class="st0" d="M71.53,53.78c1.93,1.68,3.45,3.67,4.7,5.97C74.69,59.56,71.78,55.84,71.53,53.78z"/>
<path class="st0" d="M69.71,56.35c-0.56-0.25-0.95-0.71-1.31-1.18c-0.37-0.48-0.69-1.01-1.01-1.53c-0.05-0.07,0-0.2,0-0.3
	c0.1,0.03,0.24,0.04,0.3,0.11c0.67,0.82,1.33,1.64,1.99,2.47c0.08,0.1,0.11,0.24,0.16,0.36C69.8,56.31,69.75,56.33,69.71,56.35z"/>
</svg>
