<svg xmlns="http://www.w3.org/2000/svg" width="26.688" height="34.656">
    <path fill-rule="evenodd" fill="#AA340B" d="M19.26 21.54c-.122-1.211-3.555-2.89-5.075-3.576-.405-.183-.919-.069-1.245.18-.363.277-1.359 1.032-1.96 1.309-.424.196-.951.064-1.341-.28-1.217-1.073-2.111-2.199-3.235-3.859-1.048-1.71-1.703-2.991-2.177-4.542-.152-.497-.054-1.032.299-1.337.501-.432 1.601-1.027 2.003-1.243.361-.194.678-.615.679-1.059.003-1.668-.106-5.488-1.158-6.1-1.353-.787-3.045-.364-4.48.936C-.294 3.657.332 12.28 3.578 17.134c3.078 4.963 10.67 9.097 12.977 8.098 1.777-.769 2.862-2.135 2.705-3.692z"/>
</svg>
